<svg width="318" height="318" viewBox="0 0 318 318" fill="none" xmlns="http://www.w3.org/2000/svg">
<g clip-path="url(#clip0)">
<path d="M39.5139 232.573C20.9845 225.275 0.65625 238.512 0.65625 257.938C0.65625 284.497 35.9889 295.415 51.8878 273.815C45.9813 263.737 40.7905 251.56 39.5139 232.573V232.573Z" fill="#D1D0CF"/>
<path d="M13.4097 257.938C13.4097 244.949 22.7446 234.082 35.2635 231.275C17.6528 227.318 0.65625 240.249 0.65625 257.938C0.65625 275.503 17.5126 288.576 35.2611 284.599C22.7446 281.794 13.4097 270.925 13.4097 257.938Z" fill="#AFAFAF"/>
<path d="M256.168 199.871C283.145 204.19 300.655 188.075 313.091 175.595C326.43 162.207 307.255 163.882 289.748 136.694C277.268 117.309 258.68 116.336 249.036 117.372C245.968 117.705 243.432 114.987 243.932 111.93C246.882 93.9042 252.714 43.45 231.23 17.005C205.309 -14.9013 171.601 49.9181 212.27 128.901C214.214 132.679 214.376 137.128 212.727 141.042C210.174 147.1 204.734 155.754 193.349 162.13C173.968 172.984 135.964 126.538 86.0188 151.748C32.0625 178.979 34.2843 225.845 41.8083 254.161C46.8589 273.16 61.6457 291.739 70.8306 301.91C75.405 306.976 81.8966 309.863 88.7073 309.863H195.005C207.248 309.863 199.686 280.827 177.612 280.827C204.422 280.827 210.836 264.669 210.836 264.669H210.839C210.587 264.239 216.392 274.519 219.17 277.745C225.957 285.63 225.139 292.409 225.139 301.08C225.139 305.93 229.059 309.863 233.892 309.863H266.985C271.173 309.863 274.388 306.078 273.661 301.941C267.998 269.761 228.609 269.305 246.817 247.538C260.876 230.727 256.471 212.836 252.863 204.078C251.95 201.86 253.809 199.493 256.168 199.871V199.871Z" fill="#E4E3E1"/>
<path d="M192.075 162.741C197.478 164.175 202.173 164.331 206.102 162.13C217.485 155.757 222.927 147.1 225.478 141.042C227.127 137.129 226.967 132.679 225.023 128.902C195.002 70.5988 205.51 20.0233 223.498 10.3648C199.441 -2.10798 175.569 57.6238 212.27 128.902C214.214 132.679 214.376 137.129 212.724 141.042C207.792 152.751 197.544 160.449 192.075 162.741V162.741Z" fill="#D1D0CF"/>
<path d="M83.5841 301.91C74.3992 291.74 59.6124 273.163 54.5618 254.163C47.0378 225.845 44.8184 178.98 98.7723 151.748C107.372 147.408 115.619 145.193 123.479 144.443C111.934 143.386 99.4057 144.992 86.0188 151.748C32.0625 178.98 34.2843 225.845 41.8083 254.163C46.8589 273.16 61.6457 291.74 70.8306 301.91C75.405 306.976 81.8966 309.863 88.7073 309.863H101.461C94.6476 309.863 88.1585 306.976 83.5841 301.91Z" fill="#D1D0CF"/>
<path d="M210.875 264.739C207.86 258.281 205.58 249.714 205.58 238.551C205.58 235.9 203.44 233.752 200.798 233.752C198.158 233.752 196.016 235.9 196.016 238.551C196.016 253.661 199.739 264.807 204.25 272.767C209.226 268.723 210.836 264.669 210.836 264.669C210.843 264.681 210.855 264.705 210.875 264.739Z" fill="#D1D0CF"/>
<path d="M210.836 49.7554C209.264 72.2725 216.126 94.3917 224.636 112.047C229.656 122.47 239.039 123.001 245.334 116.101C244.261 115.075 243.666 113.553 243.932 111.93C246.882 93.904 252.713 43.4499 231.229 17.0049C231.227 17.0049 213.099 17.3712 210.836 49.7554V49.7554Z" fill="#F45858"/>
<path d="M241.65 118.027C239.863 116.329 238.461 114.272 237.387 112.047C218.491 72.833 219.789 34.3421 234.423 21.4229C233.432 19.8896 232.371 18.412 231.23 17.0049C231.23 17.0049 213.099 17.3712 210.836 49.753C209.264 72.2701 216.126 94.3917 224.636 112.047C229.133 121.383 236.981 122.382 242.469 118.624C241.942 118.277 241.65 118.027 241.65 118.027V118.027Z" fill="#DD4040"/>
<path d="M280.645 184.101C278.757 182.257 275.735 182.293 273.89 184.188C272.045 186.083 272.082 189.123 273.97 190.974C274.212 191.21 277.688 194.572 282.86 197.336C287.11 195.746 291.02 193.662 294.634 191.307C287.425 190.562 280.786 184.234 280.645 184.101V184.101Z" fill="#D1D0CF"/>
<path d="M276.54 152.469C276.54 156.229 273.501 159.279 269.753 159.279C266.004 159.279 262.965 156.229 262.965 152.469C262.965 148.706 266.004 145.656 269.753 145.656C273.501 145.656 276.54 148.706 276.54 152.469Z" fill="#525468"/>
<path d="M177.612 280.826L150.657 280.649C149.704 280.63 134.702 280.132 134.702 269.402C134.702 258.547 180.801 245.715 148.164 206.618C146.469 204.587 143.452 204.32 141.428 206.021C139.404 207.724 139.136 210.749 140.833 212.783C168.63 246.081 125.137 248.923 125.137 269.402C125.137 285.662 141.767 290.148 150.613 290.25H175.549C175.866 290.25 176.178 290.257 176.487 290.271C176.487 290.271 194.514 289.937 200.696 304.612C202.077 296.247 193.699 280.826 177.612 280.826V280.826Z" fill="#D1D0CF"/>
</g>
<defs>
<clipPath id="clip0">
<rect width="316.896" height="318" fill="white" transform="translate(0.65625)"/>
</clipPath>
</defs>
</svg>
