<svg width="710" height="614" viewBox="0 0 710 614" fill="none" xmlns="http://www.w3.org/2000/svg">
<g clip-path="url(#clip0)">
<path d="M660.405 481.519H651.357L653.535 404.863H658.227L660.405 481.519Z" fill="#283444"/>
<path d="M663.379 550.211H648.383C648.09 550.211 647.796 550.211 647.545 550.211C631.209 549.708 619.396 534.327 622.664 518.317L630.539 479.423H681.307L689.182 518.317C692.407 534.327 680.637 549.708 664.3 550.211C663.923 550.211 663.672 550.211 663.379 550.211Z" fill="#F6A664"/>
<path d="M655.881 409.976C681.953 409.976 703.089 388.829 703.089 362.742C703.089 336.655 681.953 315.508 655.881 315.508C629.809 315.508 608.673 336.655 608.673 362.742C608.673 388.829 629.809 409.976 655.881 409.976Z" fill="#52CB96"/>
<path d="M71.0419 481.519H61.9941L64.1723 404.863H68.9056L71.0419 481.519Z" fill="#283444"/>
<path d="M84.3622 550.211H48.6738C40.9245 550.211 34.3062 544.553 33.1752 536.883L24.4207 479.381H108.699L99.9027 536.883C98.7298 544.553 92.1115 550.211 84.3622 550.211Z" fill="#F6A664"/>
<path d="M57.6378 409.683C57.6378 409.683 14.0325 407.964 15.9174 375.315C17.8024 342.666 44.2755 341.242 36.7357 305.617C29.1959 269.992 7.7074 214.837 57.6378 214.837C107.568 214.837 94.2897 284.158 89.5145 300.127C84.7811 316.053 124.658 348.408 117.998 372.633C111.38 396.9 94.1222 409.683 57.6378 409.683Z" fill="#52CB96"/>
<path d="M30.3687 359.934C30.3687 359.934 24.672 361.485 23.9599 368.149C23.2478 374.812 31.0808 364.921 33.2171 361.149" stroke="#37B37F" stroke-width="3" stroke-linecap="round" stroke-linejoin="round"/>
<path d="M42.3068 373.471C42.3068 373.471 38.2856 379.548 39.7098 385.709C41.1339 391.87 45.8673 380.848 45.7835 376.447" stroke="#37B37F" stroke-width="3" stroke-linecap="round" stroke-linejoin="round"/>
<path d="M47.5427 373.555C47.5427 373.555 47.8778 382.231 50.7262 383.656C53.5746 385.081 53.2395 379.087 52.1504 373.555" stroke="#37B37F" stroke-width="3" stroke-linecap="round" stroke-linejoin="round"/>
<path d="M86.1215 374.561C86.1215 374.561 84.069 381.518 87.7132 384.536C91.3575 387.553 92.4466 376.782 91.0224 372.801" stroke="#37B37F" stroke-width="3" stroke-linecap="round" stroke-linejoin="round"/>
<path d="M92.4466 336.673C92.4466 336.673 97.8501 342.373 96.7191 345.391C95.6301 348.408 88.5929 340.487 88.5929 340.487" stroke="#37B37F" stroke-width="3" stroke-linecap="round" stroke-linejoin="round"/>
<path d="M45.9091 332.398C45.9091 332.398 42.4324 339.733 43.6891 343.128C44.9457 346.522 50.6425 335.751 50.6425 333.698" stroke="#37B37F" stroke-width="3" stroke-linecap="round" stroke-linejoin="round"/>
<path d="M52.7369 333.781C52.7369 333.781 52.318 339.858 53.2814 341.996C54.2448 344.133 57.4702 340.194 57.4702 337.344C57.4702 334.494 55.5852 331.644 55.5852 331.644" stroke="#37B37F" stroke-width="3" stroke-linecap="round" stroke-linejoin="round"/>
<path d="M81.8908 285.793C81.8908 285.793 85.6188 291.535 84.1946 294.385C82.7705 297.235 77.702 287.553 77.702 287.553" stroke="#37B37F" stroke-width="3" stroke-linecap="round" stroke-linejoin="round"/>
<path d="M77.7021 293.924C77.7021 293.924 83.1056 305.324 80.2154 306.12C77.3251 306.916 73.262 297.402 73.262 297.402" stroke="#37B37F" stroke-width="3" stroke-linecap="round" stroke-linejoin="round"/>
<path d="M49.8466 297.738C49.8466 297.738 46.0348 304.066 46.3699 307.251C46.705 310.437 55.0826 303.144 55.0826 300.923" stroke="#37B37F" stroke-width="3" stroke-linecap="round" stroke-linejoin="round"/>
<path d="M37.4897 259.054C37.4897 259.054 32.0861 264.46 33.6779 268.567C35.2696 272.675 39.8354 262.7 40.6313 259.85" stroke="#37B37F" stroke-width="3" stroke-linecap="round" stroke-linejoin="round"/>
<path d="M56.6743 259.054C56.6743 259.054 55.2501 265.634 56.6743 270.034C58.0985 274.435 60.2766 268.777 60.2766 265.34C60.2766 261.903 59.9834 259.766 59.9834 259.766" stroke="#37B37F" stroke-width="3" stroke-linecap="round" stroke-linejoin="round"/>
<path d="M73.262 257.168C73.262 257.168 73.4714 260.185 76.6549 263.161C79.8384 266.137 78.5398 260.143 78.2466 258.467C77.9534 256.79 75.5658 254.192 75.5658 254.192" stroke="#37B37F" stroke-width="3" stroke-linecap="round" stroke-linejoin="round"/>
<path d="M40.6731 229.129C40.6731 229.129 35.9817 233.781 37.0289 236.38C38.0761 238.978 44.7363 232.105 44.7363 232.105" stroke="#37B37F" stroke-width="3" stroke-linecap="round" stroke-linejoin="round"/>
<path d="M56.9675 227.117C56.9675 227.117 57.2189 232.105 60.2348 234.493C63.2507 236.882 62.413 228.207 61.2401 226.195" stroke="#37B37F" stroke-width="3" stroke-linecap="round" stroke-linejoin="round"/>
<path d="M48.6737 242.205C48.6737 242.205 46.4118 247.57 47.5847 250.043C48.7575 252.515 52.4437 246.48 52.2342 243.504" stroke="#37B37F" stroke-width="3" stroke-linecap="round" stroke-linejoin="round"/>
<path d="M69.5339 357.671C69.5339 357.671 67.9003 365.382 68.6124 368.107C69.3245 370.831 74.4348 364.544 73.262 357.545" stroke="#37B37F" stroke-width="3" stroke-linecap="round" stroke-linejoin="round"/>
<path d="M160.933 550.211H312.191" stroke="#2D2D2D" stroke-width="3" stroke-linecap="round" stroke-linejoin="round"/>
<path d="M416.114 550.211H470.15" stroke="#2D2D2D" stroke-width="3" stroke-linecap="round" stroke-linejoin="round"/>
<path d="M0.879639 550.211H148.241" stroke="#2D2D2D" stroke-width="3" stroke-linecap="round" stroke-linejoin="round"/>
<path d="M485.188 550.211H709.288" stroke="#2D2D2D" stroke-width="3" stroke-linecap="round" stroke-linejoin="round"/>
<path d="M366.393 342.457C366.393 342.457 240.562 259.598 193.522 204.443C146.482 149.288 141.497 55.1971 217.021 32.3974C292.545 9.59769 332.213 63.747 339.083 92.2886C339.083 92.2886 378.038 -31.7268 495.576 8.17271C613.113 48.0722 541.82 178.374 522.593 202.683C503.367 226.991 366.393 342.457 366.393 342.457Z" fill="#F664B4"/>
<path d="M354.497 284.284C354.455 283.949 354.12 283.697 353.785 283.739L350.099 284.242L347.963 263.58C352.445 261.778 354.288 250.755 351.858 236.589L336.234 237.763C336.234 237.763 336.611 257.964 343.481 262.7C344.654 263.496 345.743 263.873 346.748 263.831L348.884 284.41L345.156 284.913C344.821 284.955 344.57 285.29 344.612 285.625C344.654 285.961 344.905 286.17 345.24 286.17C345.282 286.17 345.282 286.17 345.324 286.17L353.995 284.997C354.33 284.955 354.581 284.661 354.497 284.284Z" fill="white"/>
<path d="M337.7 246.313L352.193 244.762C352.193 244.762 352.864 261.652 347.376 262.658C341.889 263.622 338.747 254.904 337.7 246.313Z" fill="#ED85C3"/>
<path d="M363.084 279.8C363.042 279.464 363.294 279.129 363.629 279.087L367.315 278.626L364.09 258.09C359.314 257.503 354.707 247.318 353.408 232.985L368.823 230.135C368.823 230.135 373.64 249.791 368.195 256.078C367.273 257.168 366.31 257.796 365.346 258.006L368.53 278.458L372.258 277.997C372.593 277.956 372.928 278.207 372.97 278.542C373.012 278.878 372.802 279.129 372.509 279.213C372.467 279.213 372.467 279.213 372.425 279.213L363.755 280.303C363.461 280.386 363.126 280.177 363.084 279.8Z" fill="white"/>
<path d="M369.619 238.81L355.209 241.032C355.209 241.032 358.896 257.545 364.467 257.084C370.038 256.581 370.834 247.36 369.619 238.81Z" fill="#ED85C3"/>
<path d="M299.457 560.144C299.457 560.144 327.27 460.898 321.573 452.642C315.877 444.385 284.545 440.781 284.545 440.781L271.015 469.993L305.195 470.077C290.576 475.777 289.404 557.043 289.404 557.043L287.183 570.999C287.183 570.999 300.169 584.746 309.677 587.638C309.677 587.638 323.123 587.931 318.097 584.411C309.258 578.292 300.629 569.909 299.457 560.144Z" fill="#FFDFD7"/>
<path d="M412.931 565.592V577.956L408.03 584.746L396.05 583.405L393.369 577.789L392.406 557.965L409.831 561.695L412.931 565.592Z" fill="#FFDFD7"/>
<path d="M359.733 591.829C359.733 591.829 366.352 573.598 396.385 578.208C396.385 578.208 409.077 581.435 413.392 577.537C413.392 577.537 415.402 585.081 414.69 591.242C414.732 591.284 376.488 595.852 359.733 591.829Z" fill="#283444"/>
<path d="M372.844 392.206H360.948V585.836H372.844V392.206Z" fill="#CED5E5"/>
<path d="M404.763 593.505H329.071C329.071 589.063 332.674 585.417 337.156 585.417H396.72C401.16 585.417 404.763 589.021 404.763 593.505Z" fill="#2D2D2D"/>
<path d="M364.55 585.249L357.136 578.25C357.136 578.25 325.511 470.58 320.861 464.503C316.212 458.425 290.241 442.038 290.241 442.038C277.759 450.965 277.759 470.538 277.759 470.538L306.787 488.057C311.437 515.425 338.706 561.611 346.581 575.148C346.999 575.861 345.701 576.992 345.994 577.453C346.497 578.292 346.581 579.256 346.581 579.256L350.518 584.997C350.518 584.997 359.65 591.871 368.111 594.847C371.085 595.894 374.897 596.104 376.656 595.014C376.614 595.014 373.473 591.787 364.55 585.249Z" fill="#FFDFD7"/>
<path d="M453.772 392.876H278.178C274.198 392.876 270.973 389.649 270.973 385.667V381.854C270.973 377.872 274.198 374.645 278.178 374.645H453.772C457.751 374.645 460.976 377.872 460.976 381.854V385.667C460.976 389.649 457.751 392.876 453.772 392.876Z" fill="#283444"/>
<path d="M261.339 294.343L298.535 347.78L329.658 292.373L339.627 298.073L304.483 368.149H295.435L257.694 317.729L261.339 294.343Z" fill="#FFDFD7"/>
<path d="M192.642 475.106H170.316L159.09 300.001C158.378 289.062 166.463 279.506 177.353 278.375C185.061 278.375 192.14 281.057 197.753 285.541C206.382 292.499 210.738 303.479 209.565 314.502L192.642 475.106Z" fill="#F6A664"/>
<path d="M249.149 449.498L170.274 455.114V475.064H273.109V471.837C273.109 458.845 262.135 448.576 249.149 449.498Z" fill="#F6A664"/>
<path d="M179.573 589.859H168.18L176.934 475.106H188.37L179.573 589.859Z" fill="#283444"/>
<path d="M262.218 589.859H273.612L264.815 475.106H253.422L262.218 589.859Z" fill="#283444"/>
<path d="M529.798 475.106H552.124L563.35 300.001C564.062 289.062 555.978 279.506 545.087 278.375C537.38 278.375 530.301 281.057 524.688 285.541C516.059 292.499 511.703 303.479 512.876 314.502L529.798 475.106Z" fill="#F6A664"/>
<path d="M312.651 508.048C310.222 501.384 307.667 493.296 306.787 488.099L297.237 482.357" stroke="white" stroke-width="3" stroke-linecap="round" stroke-linejoin="round"/>
<path d="M322.788 468.61C321.95 466.472 321.28 465.047 320.861 464.544C318.306 461.192 309.217 454.695 301.593 449.54" stroke="white" stroke-width="3" stroke-linecap="round" stroke-linejoin="round"/>
<path d="M473.25 449.498L552.124 455.114V475.064H449.29V471.837C449.29 458.845 460.306 448.576 473.25 449.498Z" fill="#F6A664"/>
<path d="M542.867 589.859H554.261L545.464 475.106H534.071L542.867 589.859Z" fill="#283444"/>
<path d="M460.222 589.859H448.829L457.583 475.106H469.019L460.222 589.859Z" fill="#283444"/>
<path d="M472.16 576.615L475.176 587.68L473.082 595.308L460.641 597.864L456.285 592.248L449.164 571.628L467.72 570.37L472.16 576.615Z" fill="#FFDFD7"/>
<path d="M339.376 362.449C339.376 362.449 351.817 361.066 358.225 361.694C364.634 362.323 370.289 369.071 370.289 369.071C370.289 369.071 373.473 374.645 365.011 374.645C356.55 374.645 341.512 374.645 341.512 374.645L339.376 362.449Z" fill="#FFDFD7"/>
<path d="M271.14 224.016C271.14 224.016 279.057 251.426 276.209 259.515C273.36 267.603 271.601 271.878 253.715 268.525C235.829 265.214 234.698 255.868 234.698 255.868C234.698 255.868 229.63 237.008 238.342 227.997C247.097 218.944 260.878 218.777 271.14 224.016Z" fill="#FFDFD7"/>
<path d="M258.658 412.365C258.658 412.365 259.663 405.533 261.632 390.697C264.857 366.514 268.962 332.817 268.292 322.884C267.203 306.832 259.914 284.703 259.914 284.703L245.882 280.386C245.882 280.386 225.776 309.138 220.037 326.615C215.848 339.397 209.23 378.878 205.963 399.163C205.963 399.163 199.512 425.693 199.763 431.644C200.015 438.057 196.496 446.271 230.174 462.323C265.569 479.171 278.387 506.204 278.387 506.204C278.387 506.204 294.556 464.922 306.829 437.889L258.658 412.365Z" fill="#FE8163"/>
<path d="M395.422 283.907C395.422 283.907 391.233 277.914 389.641 274.728C386.332 268.148 378.499 257.796 368.488 257.335C355.88 256.748 359.314 267.813 359.482 268.861C359.608 269.448 360.236 274.1 361.534 274.854C362.833 275.608 370.331 271.292 373.975 276.74C379.63 285.248 382.604 286.003 382.604 286.003L395.422 283.907Z" fill="#FFDFD7"/>
<path d="M379.421 356.455C379.421 356.455 367.776 354.947 359.985 355.827C352.194 356.707 345.533 367.017 345.533 367.017C345.533 367.017 341.68 374.729 351.942 374.729C362.205 374.729 380.635 373.597 380.635 373.597L379.421 356.455Z" fill="#FFDFD7"/>
<path d="M379.421 356.455C379.421 356.455 367.776 354.947 359.985 355.827C352.194 356.707 345.533 367.017 345.533 367.017C345.533 367.017 341.68 374.729 351.942 374.729" stroke="white" stroke-width="3" stroke-linecap="round" stroke-linejoin="round"/>
<path d="M256.103 268.945L259.914 284.703C259.914 284.703 256.103 285.751 251.579 284.703C247.055 283.655 245.882 280.386 245.882 280.386L246.301 266.514" fill="#FFDFD7"/>
<path d="M271.14 224.016C271.14 224.016 267.831 212.281 255.935 209.305C244.081 206.287 235.996 209.137 231.556 212.616C227.116 216.094 221.252 223.052 220.959 228.291C220.624 233.53 226.362 236.841 224.771 240.026C223.179 243.211 212.414 246.69 214.466 253.018C216.519 259.347 222.844 261.401 219.199 265.843C215.555 270.286 209.063 272.004 210.026 279.129C210.989 286.254 216.519 288.014 216.519 288.014L241.232 289.607C241.232 289.607 248.06 281.937 247.264 277.788C246.468 273.681 245.296 268.903 249.024 263.622C252.752 258.299 247.935 249.204 247.222 243.882C246.51 238.559 249.736 231.853 256.94 231.308C264.103 230.763 269.088 230.051 271.14 224.016Z" fill="#2D2D2D"/>
<path d="M238.635 327.495L279.183 374.687H342.015L339.418 362.449L284.545 361.275L255.181 318.484C251.327 312.826 243.159 312.407 238.677 317.562C236.206 320.454 236.206 324.645 238.635 327.495Z" fill="#FFDFD7"/>
<path d="M465.71 410.94C465.71 410.94 403.967 433.824 389.222 449.456C374.52 465.089 390.018 565.131 390.018 565.131C390.018 565.131 405.14 569.951 414.858 567.981L412.973 468.903L482.214 442.038C482.214 442.038 519.159 432.524 522.468 423.513L465.71 410.94Z" fill="#283444"/>
<path d="M489.795 416.933C489.795 416.933 434.88 437.512 422.398 447.78C409.915 458.09 413.643 470.161 416.868 482.985C420.094 495.81 448.033 578.669 448.033 578.669C448.033 578.669 468.768 578.208 474.967 575.819L446.316 465.928C446.316 465.928 504.749 458.425 515.431 451.301C526.112 444.176 522.719 418.274 522.719 418.274L489.795 416.933Z" fill="#283444"/>
<path d="M426.293 613.623C426.293 613.623 428.597 594.386 458.882 591.997C458.882 591.997 471.993 592.248 475.302 587.47C475.302 587.47 478.988 594.344 479.7 600.547C479.742 600.547 443.509 613.749 426.293 613.623Z" fill="#283444"/>
<path d="M205.963 399.121C205.963 399.121 242.992 396.061 259.705 404.905L260.627 398.199C260.627 398.199 250.029 393.631 232.185 392.625C222.299 392.08 207.052 392.625 207.052 392.625L205.963 399.121Z" fill="#5900CC"/>
<path d="M500.728 261.401C500.728 261.401 515.598 279.548 519.41 301.887C523.222 324.226 522.719 415.718 522.51 423.555C522.51 423.555 479.993 424.519 465.752 410.982C465.752 410.982 461.479 333.027 463.615 312.616C463.615 312.616 434.713 363.455 423.78 364.879C412.847 366.304 406.187 353.731 401.202 341.577C396.218 329.464 378.876 287.889 378.876 287.889C378.876 287.889 386.751 283.153 396.218 282.65L422.104 337.05C422.104 337.05 457.919 273.471 475.47 263.077L500.728 261.401Z" fill="#2D2D2D"/>
<path d="M488.832 299.498L447.195 351.175L379.295 354.737L380.719 374.687L444.933 374.184C444.933 374.184 459.091 373.723 468.935 360.898C478.779 348.073 506.132 318.777 506.132 318.777L488.832 299.498Z" fill="#2D2D2D"/>
<path d="M463.573 199.246C463.573 199.246 457.5 237.846 462.275 245.097C467.008 252.348 496.12 240.11 496.12 240.11C496.12 240.11 510.237 233.236 510.237 227.62C510.237 222.046 515.473 199.33 499.178 192.457C482.926 185.583 466.087 190.78 463.573 199.246Z" fill="#FFDFD7"/>
<path d="M477.522 244.846L475.47 263.077C475.47 263.077 483.303 266.262 489.418 265.131C495.534 264.041 499.723 263.077 500.728 261.401C501.733 259.724 502.236 235.835 502.236 235.835L477.522 244.846Z" fill="#FFDFD7"/>
<path d="M479.03 202.557C479.03 202.557 460.683 201.3 460.474 192.876C460.264 184.451 464.704 180.302 470.317 179.799C475.93 179.338 484.099 180.847 486.235 183.362C486.235 183.362 492.35 178.374 500.56 181.685C508.771 184.996 510.53 189.607 510.781 191.115C511.032 192.624 510.237 198.576 508.812 200.168C508.812 200.168 517.064 203.563 517.525 210.395C517.986 217.226 516.352 228.207 511.074 232.482C511.074 232.482 511.745 237.008 509.776 238.601C507.807 240.193 504.875 242.499 502.11 242.163C499.346 241.828 494.361 225.441 494.361 225.441C494.361 225.441 499.974 217.603 496.414 210.311C492.853 203.018 487.785 203.479 485.816 205.952C483.847 208.425 485.355 220.369 485.355 220.369L480.035 220.453L479.03 202.557Z" fill="#2D2D2D"/>
<path d="M380.719 374.687L444.933 374.184C444.933 374.184 459.091 373.723 468.935 360.898C478.779 348.073 506.132 318.777 506.132 318.777" stroke="white" stroke-opacity="0.8" stroke-width="3" stroke-linecap="round" stroke-linejoin="round"/>
<path d="M488.832 299.498L462.987 331.56L463.573 312.574L464.411 299.498" stroke="white" stroke-opacity="0.8" stroke-width="3" stroke-linecap="round" stroke-linejoin="round"/>
<path d="M467.469 425.735C450.756 432.566 429.561 441.871 422.398 447.78C409.915 458.09 413.643 470.161 416.868 482.985C420.094 495.81 448.033 578.669 448.033 578.669C448.033 578.669 468.768 578.208 474.967 575.819" stroke="#141B25" stroke-width="5" stroke-linecap="round" stroke-linejoin="round"/>
<path d="M205.963 399.121C205.963 399.121 199.512 425.651 199.763 431.602C200.015 438.015 196.496 446.229 230.174 462.281C265.569 479.13 278.387 506.162 278.387 506.162" stroke="white" stroke-opacity="0.8" stroke-width="3" stroke-linecap="round" stroke-linejoin="round"/>
<path d="M284.545 361.275L339.376 362.449L349.973 361.569" stroke="white" stroke-width="3" stroke-linecap="round" stroke-linejoin="round"/>
<path d="M329.658 292.373C329.658 292.373 330.663 288.852 331.124 285.29C332.129 277.997 334.182 267.31 343.523 263.664C355.293 259.054 355.586 270.621 355.754 271.711C355.838 272.297 356.717 276.908 355.754 278.039C354.791 279.171 346.245 277.494 344.612 283.823C342.015 293.672 339.627 298.073 339.627 298.073L329.658 292.373Z" fill="#FFDFD7"/>
<path d="M288.398 563.329C288.398 563.329 284.712 567.101 284.712 572.089C284.712 577.076 287.016 588.476 287.016 588.476L288.901 588.434V576.741C288.901 576.741 292.755 578.459 296.943 582.064C299.373 584.201 301.509 586.883 304.525 588.727C309.677 591.913 318.516 591.619 322.453 591.2C328.694 590.53 318.097 584.494 318.097 584.494C318.097 584.494 314.788 585.333 310.012 583.614C300.755 580.261 286.639 572.131 288.398 563.329Z" fill="#FF562F"/>
<path d="M346.245 574.813C345.114 576.112 343.229 579.004 343.229 582.65C343.229 587.638 345.533 599.038 345.533 599.038L347.418 598.996V587.303C347.418 587.303 351.272 589.021 355.461 592.625C357.89 594.763 360.027 597.445 363.042 599.289C368.195 602.474 377.033 602.181 380.97 601.762C387.212 601.091 376.614 595.056 376.614 595.056C376.614 595.056 373.305 595.894 368.53 594.176C360.152 591.158 347.753 584.201 346.832 576.364C346.706 575.525 346.413 574.645 346.245 574.813Z" fill="#FF562F"/>
<path d="M630.245 371.124C630.245 374.477 628.444 377.201 626.266 377.201C624.088 377.201 622.287 374.477 622.287 371.124" stroke="#37B37F" stroke-width="3" stroke-linecap="round" stroke-linejoin="round"/>
<path d="M650.771 356.204C650.771 359.054 649.263 361.359 647.419 361.359C645.576 361.359 644.068 359.054 644.068 356.204" stroke="#37B37F" stroke-width="3" stroke-linecap="round" stroke-linejoin="round"/>
<path d="M679.673 384.62C679.673 387.47 678.165 389.775 676.322 389.775C674.479 389.775 672.971 387.47 672.971 384.62" stroke="#37B37F" stroke-width="3" stroke-linecap="round" stroke-linejoin="round"/>
<path d="M659.483 330.848C659.483 333.698 657.975 336.003 656.132 336.003C654.289 336.003 652.781 333.698 652.781 330.848" stroke="#37B37F" stroke-width="3" stroke-linecap="round" stroke-linejoin="round"/>
<path d="M667.065 374.31C667.065 377.537 665.348 380.135 663.253 380.135C661.159 380.135 659.441 377.537 659.441 374.31" stroke="#37B37F" stroke-width="3" stroke-linecap="round" stroke-linejoin="round"/>
<path d="M647.838 383.614C647.838 387.553 645.744 390.781 643.147 390.781C640.55 390.781 638.455 387.595 638.455 383.614" stroke="#37B37F" stroke-width="3" stroke-linecap="round" stroke-linejoin="round"/>
<path d="M674.94 343.128C674.94 347.067 672.845 350.294 670.248 350.294C667.651 350.294 665.557 347.109 665.557 343.128" stroke="#37B37F" stroke-width="3" stroke-linecap="round" stroke-linejoin="round"/>
<path d="M687.004 362.784C687.004 366.221 685.202 368.987 682.94 368.987C680.678 368.987 678.877 366.221 678.877 362.784" stroke="#37B37F" stroke-width="3" stroke-linecap="round" stroke-linejoin="round"/>
<path d="M638.497 343.128C638.497 346.564 636.696 349.33 634.434 349.33C632.214 349.33 630.371 346.564 630.371 343.128" stroke="#37B37F" stroke-width="3" stroke-linecap="round" stroke-linejoin="round"/>
</g>
<defs>
<clipPath id="clip0">
<rect width="710" height="614" fill="white"/>
</clipPath>
</defs>
</svg>
