<svg width="1435" height="992" viewBox="0 0 1435 992" fill="none" xmlns="http://www.w3.org/2000/svg">
<path d="M144.944 929.651C112.534 911.328 84.8961 885.579 64.2799 854.503C43.6637 823.427 30.6528 787.902 26.307 750.823C9.65501 612.059 19.0089 316.648 386.071 264.512C643.046 228.007 812.118 106.197 919.568 99.0099C992.309 94.1437 1160.73 106.06 1227.54 240.181C1294.36 374.303 1345.05 428.278 1382.74 459.229C1420.43 490.18 1447.07 614.982 1423.96 678.277C1397.1 751.82 1349.98 814.273 1134.12 877.894C918.266 941.516 536.23 1018.89 308.379 982.784C237.129 971.487 184.141 951.627 144.944 929.651Z" fill="#F6A664"/>
<path d="M27.9345 772.162C27.9345 772.162 514.096 671.863 627.148 702.401C740.199 732.94 996.746 730.12 1051.7 720.921C1146.63 705.032 1292.88 749.929 1325.59 735.158C1341.71 727.867 1398.84 732.94 1398.84 732.94C1398.84 732.94 1283.55 868.454 970.843 923.667C673.951 976.095 457.939 1013.8 260.102 967.979C62.2663 922.154 27.9345 772.162 27.9345 772.162Z" fill="#F6A664"/>
<path d="M76.3828 764.854C76.3828 764.854 217.085 435.981 322.599 409.002C428.112 382.023 389.412 414.986 498.472 373.116C607.532 331.246 622.916 267.212 643.354 360.53C663.792 453.847 646.644 729.123 646.644 729.123C646.644 729.123 153.766 737.927 76.3828 764.854Z" fill="#F6A664"/>
<path d="M615.635 734.935C615.635 734.935 688.976 267.711 819.142 271.064C949.308 274.417 1017.87 295.36 1095.3 304.319C1172.74 313.278 1207.58 394.937 1240.82 421.4C1274.06 447.863 1329.58 488.461 1345.01 539.891C1360.45 591.322 1467.33 741.452 1348.17 753.42C1229 765.387 625.948 733.972 625.948 733.972" fill="#F6A664"/>
<path d="M276.343 237.102L147.685 752.283L158.46 751.544L276.343 237.102Z" fill="#37B37F"/>
<path d="M270.69 151.488C270.69 151.488 266.887 219.288 276.395 237.085C276.343 237.085 293.286 197.365 270.69 151.488Z" fill="#37B37F"/>
<path d="M229.043 172.725C229.043 172.725 250.269 228.282 265.293 238.307C265.293 238.238 266.116 199.343 229.043 172.725Z" fill="#37B37F"/>
<path d="M315.009 132.161C315.009 132.161 272.677 207.286 278.725 234.042C278.725 234.042 327.584 199.978 315.009 132.161Z" fill="#37B37F"/>
<path d="M209.307 198.55C209.307 198.55 231.424 270.013 238.705 290.028C240.418 294.739 241.96 296.906 243.314 297.13C247.391 298.006 249.772 282.531 249.738 271.939C249.687 257.822 239.853 214.645 209.307 198.55Z" fill="#37B37F"/>
<path d="M244.067 295.926C244.067 295.926 243.879 295.548 243.947 296.15C244.753 302.598 249.738 341.648 248.95 348.371C248.093 355.731 251.982 338.828 251.982 338.828L244.067 295.926Z" fill="#37B37F"/>
<path d="M265.242 237.618C265.242 237.618 264.625 237.292 264.694 237.618C266.681 243.791 266.869 269.721 266.081 276.462C265.225 283.821 268.24 270.564 268.24 270.564L265.242 237.618Z" fill="#37B37F"/>
<path d="M197.144 227.921C197.144 227.921 208.622 322.201 220.014 343.283C234.525 370.107 237.146 319.485 235.142 310.182C233.137 300.88 225.685 247.162 197.144 227.921Z" fill="#37B37F"/>
<path d="M265.242 237.618C265.242 237.618 264.625 237.292 264.694 237.618C266.681 243.791 266.869 269.721 266.081 276.462C265.225 283.821 268.24 270.564 268.24 270.564L265.242 237.618Z" fill="#37B37F"/>
<path d="M228.477 347.631C228.477 347.631 228.289 347.219 228.375 347.872C229.231 355.06 234.525 398.598 233.771 406.095C232.966 414.279 236.735 395.502 236.735 395.502L228.477 347.631Z" fill="#37B37F"/>
<path d="M151.796 267.468C151.796 267.468 184.672 374.078 200.741 396.431C221.179 424.82 217.599 363.761 213.47 353.444C209.341 343.127 184.363 284.663 151.796 267.468Z" fill="#37B37F"/>
<path d="M211.157 402.674C211.157 402.674 210.558 400.954 210.644 401.608C211.603 409.621 220.357 452.969 219.518 461.326C218.61 470.457 222.944 451.009 222.944 451.009L211.157 402.674Z" fill="#37B37F"/>
<path d="M128.155 319.054C128.155 319.054 169.271 429.429 185.426 453.175C205.984 483.49 199.131 415.346 192.672 396.793C185.974 377.912 160.79 337.504 128.155 319.054Z" fill="#37B37F"/>
<path d="M195.859 459.95C195.859 459.95 195.259 458.024 195.345 458.815C196.339 467.412 205.281 513.547 204.476 522.436C203.602 532.169 207.902 511.552 207.902 511.552L195.859 459.95Z" fill="#37B37F"/>
<path d="M113.678 375.092C113.678 375.092 154.794 485.467 170.949 509.214C191.507 539.529 184.655 471.385 178.196 452.831C171.498 433.968 146.314 393.577 113.678 375.092Z" fill="#37B37F"/>
<path d="M181.383 516.024C181.383 516.024 180.783 514.098 180.869 514.889C181.862 523.487 190.908 571.169 190.12 580.076C189.246 589.808 194.146 567.265 194.146 567.265L181.383 516.024Z" fill="#37B37F"/>
<path d="M85.2056 424.992C85.2056 424.992 136.875 538.789 153.047 562.553C173.605 592.867 163.086 515.679 156.473 497.211C149.86 478.348 117.841 443.477 85.2056 424.992Z" fill="#37B37F"/>
<path d="M161.424 568.933C161.424 568.933 161.013 567.901 161.116 568.933C162.229 579.25 173.879 635.994 173.211 646.689C172.474 658.382 178.213 631.558 178.213 631.558L161.424 568.933Z" fill="#37B37F"/>
<path d="M48.3726 487.565C48.3726 487.565 68.9305 528.506 93.6686 562.432C110.286 585.216 131.495 602.583 139.581 610.836C165.279 636.99 139.29 565.82 129.577 548.814C119.623 531.412 83.7836 499.928 48.3726 487.565Z" fill="#37B37F"/>
<path d="M149.158 615.068C149.158 615.068 148.747 614.036 148.85 615.068C149.963 625.385 162.435 686.702 161.287 697.363C161.013 699.891 166.427 678.139 166.427 678.139L149.158 615.068Z" fill="#37B37F"/>
<path d="M33.6051 547.009C33.6051 547.009 56.6643 593.074 84.2634 631.385C102.783 657.178 126.27 676.797 135.247 686.151C163.703 715.761 134.339 635.787 123.461 616.614C112.325 596.978 72.5967 561.281 33.6051 547.009Z" fill="#37B37F"/>
<path d="M0.0100098 645.761C0.0100098 645.761 46.2654 671.966 79.5693 697.346C118.612 727.128 125.345 730.36 136.481 733.593C171.772 743.824 113.798 668.905 97.352 658.554C80.5287 647.944 38.4534 638.178 0.0100098 645.761Z" fill="#37B37F"/>
<path d="M146.571 692.96C146.353 692.231 146.084 691.519 145.766 690.828C146.554 696.176 155.702 720.197 154.212 725.803C153.869 727.127 157.038 716.036 157.038 716.036L146.571 692.96Z" fill="#37B37F"/>
<path d="M143.179 730.584C143.179 730.584 142.391 729.312 142.46 729.552C143.059 732.183 151.368 743.79 149.689 746.627C149.295 747.298 152.841 741.675 152.841 741.675L143.179 730.584Z" fill="#37B37F"/>
<path d="M308.859 175.854C308.859 175.854 285.663 238.77 273.225 253.008C273.225 253.008 277.919 212.978 308.859 175.854Z" fill="#37B37F"/>
<path d="M325.991 204.311C325.991 204.311 292.276 250.6 279.444 256.515C279.444 256.515 293.578 220.663 325.991 204.311Z" fill="#37B37F"/>
<path d="M289.312 148.564C289.312 148.564 286.639 226.492 272.917 249.706C272.917 249.706 256.231 207.939 289.312 148.564Z" fill="#37B37F"/>
<path d="M328.184 232.236C328.184 232.236 287.958 292.883 276.035 309.614C273.225 313.551 271.512 315.15 270.57 315.116C267.777 315.116 272.146 300.363 276.155 290.665C281.517 277.786 303.72 240.352 328.184 232.236Z" fill="#37B37F"/>
<path d="M270.587 313.895C270.587 313.895 270.844 313.585 270.587 314.118C267.675 319.844 250.029 354.526 247.939 360.854C245.695 367.732 249.652 351.466 249.652 351.466L270.587 313.895Z" fill="#37B37F"/>
<path d="M279.718 255.896C279.718 255.896 280.215 255.741 280.078 255.896C276.549 261.054 266.681 284.818 264.659 291.163C262.415 298.041 265.568 285.3 265.568 285.3L279.718 255.896Z" fill="#37B37F"/>
<path d="M324.5 261.742C324.5 261.742 282.134 345.585 267.264 362.419C248.419 383.844 265.842 336.902 270.57 328.837C275.298 320.773 300.019 273.194 324.5 261.742Z" fill="#37B37F"/>
<path d="M279.718 255.896C279.718 255.896 280.215 255.741 280.078 255.896C276.549 261.054 266.681 284.818 264.659 291.163C262.415 298.041 265.568 285.3 265.568 285.3L279.718 255.896Z" fill="#37B37F"/>
<path d="M260.565 364.586C260.565 364.586 260.839 364.242 260.565 364.844C257.344 371.241 237.78 409.964 235.416 416.979C232.829 424.648 237.609 406.662 237.609 406.662L260.565 364.586Z" fill="#37B37F"/>
<path d="M337.023 307.723C337.023 307.723 277.063 398.289 258.972 415.243C235.947 436.823 261.062 381.713 267.538 373.115C274.013 364.518 310.898 316.458 337.023 307.723Z" fill="#37B37F"/>
<path d="M250.32 418.786C250.32 418.786 251.365 417.273 251.023 417.926C247.425 425.062 225.856 462.857 223.201 470.698C220.323 479.295 224.914 460.587 224.914 460.587L250.32 418.786Z" fill="#37B37F"/>
<path d="M331.901 360.097C331.901 360.097 265.55 452.28 246.86 470.593C223.03 493.909 252.787 432.901 263.683 417.391C274.853 401.589 305.244 369.967 331.901 360.097Z" fill="#37B37F"/>
<path d="M238.02 474.496C238.02 474.496 239.099 472.863 238.756 473.568C234.936 481.168 212.168 521.542 209.307 529.864C206.172 538.96 211.346 519.169 211.346 519.169L238.02 474.496Z" fill="#37B37F"/>
<path d="M319.566 414.555C319.566 414.555 253.233 506.738 234.525 525.051C210.695 548.367 240.452 487.359 251.348 471.849C262.518 455.978 292.961 424.425 319.566 414.555Z" fill="#37B37F"/>
<path d="M225.685 528.954C225.685 528.954 226.764 527.32 226.422 528.025C222.601 535.625 199.2 577.392 196.321 585.715C193.186 594.811 198.703 573.111 198.703 573.111L225.685 528.954Z" fill="#37B37F"/>
<path d="M317.99 466.415C317.99 466.415 243.999 559.44 225.274 577.77C201.444 601.086 236.838 532.667 247.733 517.157C258.886 501.321 291.248 476.285 317.99 466.415Z" fill="#37B37F"/>
<path d="M217.839 581.726C217.839 581.726 218.473 580.866 218.061 581.726C213.522 590.908 185.134 640.361 181.52 650.3C177.562 661.236 184.175 635.443 184.175 635.443L217.839 581.726Z" fill="#37B37F"/>
<path d="M316.705 531.705C316.705 531.705 288.901 564.736 261.199 590.46C242.594 607.655 223.269 619.038 215.269 624.85C189.966 643.249 232.401 583.703 244.633 570.222C257.19 556.345 290.682 535.333 316.705 531.705Z" fill="#37B37F"/>
<path d="M207.902 626.637C207.902 626.637 208.536 625.778 208.125 626.637C203.585 635.82 172.988 689.296 169.665 699.304C168.877 701.677 173.793 680.596 173.793 680.596L207.902 626.637Z" fill="#37B37F"/>
<path d="M303.24 589.308C303.24 589.308 271.992 626.501 240.915 655.612C220.049 675.163 198.463 688.111 189.52 694.731C161.201 715.692 209.016 648.803 222.79 633.603C236.958 618.041 274.373 593.934 303.24 589.308Z" fill="#37B37F"/>
<path d="M286.434 687.028C286.434 687.028 248.641 701.007 218.987 717.05C184.209 735.879 178.933 737.375 171.018 737.925C145.869 739.644 209.033 683.606 222.875 677.742C236.992 671.552 266.081 671.741 286.434 687.028Z" fill="#37B37F"/>
<path d="M180.183 698.514C180.183 698.514 181.708 696.296 181.468 696.794C178.984 701.523 164.422 721.538 163.206 726.989C162.915 728.278 165.176 717.428 165.176 717.428L180.183 698.514Z" fill="#37B37F"/>
<path d="M168.088 733.696C168.088 733.696 169.048 732.699 168.911 732.905C167.557 735.175 158.186 744.013 158.118 746.971C158.118 747.676 158.118 741.812 158.118 741.812L168.088 733.696Z" fill="#37B37F"/>
<path d="M575.547 132.058L385.095 735.157L400.925 734.951L575.547 132.058Z" fill="#37B37F"/>
<path d="M567.067 30.8306C567.067 30.8306 561.379 111.011 575.633 132.058C575.547 132.058 600.885 85.081 567.067 30.8306Z" fill="#37B37F"/>
<path d="M504.811 55.9697C504.811 55.9697 536.539 121.672 559.015 133.519C559.015 133.485 560.214 87.4195 504.811 55.9697Z" fill="#37B37F"/>
<path d="M633.367 7.979C633.367 7.979 570.082 96.7915 579.059 128.465C579.059 128.465 652.177 88.1767 633.367 7.979Z" fill="#37B37F"/>
<path d="M475.31 86.4927C475.31 86.4927 508.391 170.989 519.27 194.667C521.822 200.238 524.135 202.731 526.122 203.075C532.221 204.107 535.785 185.88 535.733 173.293C535.682 156.563 520.932 105.51 475.31 86.4927Z" fill="#37B37F"/>
<path d="M527.288 201.629C527.288 201.629 527.013 201.182 527.116 201.887C528.332 209.504 535.768 255.673 534.586 263.634C533.301 272.335 539.125 252.354 539.125 252.354L527.288 201.629Z" fill="#37B37F"/>
<path d="M558.947 132.677C558.947 132.677 558.022 132.298 558.124 132.573C561.105 139.881 561.397 170.54 560.214 178.501C558.93 187.202 563.435 171.537 563.435 171.537L558.947 132.677Z" fill="#37B37F"/>
<path d="M457.099 121.191C457.099 121.191 474.231 232.684 491.362 257.6C513.051 289.325 517.06 229.451 513.993 218.464C510.927 207.476 499.808 143.975 457.099 121.191Z" fill="#37B37F"/>
<path d="M558.947 132.677C558.947 132.677 558.022 132.298 558.124 132.573C561.105 139.881 561.397 170.54 560.214 178.501C558.93 187.202 563.435 171.537 563.435 171.537L558.947 132.677Z" fill="#37B37F"/>
<path d="M503.954 262.775C503.954 262.775 503.663 262.276 503.783 263.067C505.068 271.561 512.965 323.043 511.869 331.847C510.67 341.528 516.289 319.312 516.289 319.312L503.954 262.775Z" fill="#37B37F"/>
<path d="M389.309 167.928C389.309 167.928 438.477 294.071 462.496 320.448C493.059 354.013 487.713 281.845 481.529 269.603C475.344 257.36 437.997 188.373 389.309 167.928Z" fill="#37B37F"/>
<path d="M477.983 327.858C477.983 327.858 477.092 325.726 477.229 326.603C478.668 336.078 491.739 387.336 490.489 397.223C489.118 408.022 495.628 385.187 495.628 385.187L477.983 327.858Z" fill="#37B37F"/>
<path d="M353.95 228.953C353.95 228.953 415.418 359.463 439.608 387.646C470.445 423.497 460.166 342.818 450.435 320.963C440.396 298.593 402.758 250.808 353.95 228.953Z" fill="#37B37F"/>
<path d="M455.18 395.59C455.18 395.59 454.272 393.32 454.409 394.249C455.9 404.342 469.263 458.971 468.115 469.512C466.813 481.015 473.254 456.633 473.254 456.633L455.18 395.59Z" fill="#37B37F"/>
<path d="M332.364 295.239C332.364 295.239 393.832 425.749 418.022 453.932C448.859 489.784 438.58 409.104 428.849 387.25C418.759 364.879 381.103 317.094 332.364 295.239Z" fill="#37B37F"/>
<path d="M433.543 461.876C433.543 461.876 432.635 459.607 432.772 460.535C434.263 470.629 447.797 527.097 446.597 537.621C445.295 549.124 452.628 522.472 452.628 522.472L433.543 461.876Z" fill="#37B37F"/>
<path d="M289.723 354.253C289.723 354.253 366.987 488.822 391.159 517.005C421.996 552.856 406.184 461.568 396.402 439.713C386.414 417.342 338.531 376.108 289.723 354.253Z" fill="#37B37F"/>
<path d="M403.7 524.467C403.7 524.467 403.083 523.246 403.237 524.364C404.95 536.521 422.322 603.65 421.328 616.306C420.232 630.062 428.815 598.423 428.815 598.423L403.7 524.467Z" fill="#37B37F"/>
<path d="M234.713 428.26C234.713 428.26 265.379 476.664 302.383 516.798C327.241 543.742 358.918 564.273 371.047 574.023C409.37 604.974 370.602 520.718 356.074 500.686C341.187 480.086 287.582 442.859 234.713 428.26Z" fill="#37B37F"/>
<path d="M385.352 579.009C385.352 579.009 384.735 577.788 384.889 578.906C386.602 591.063 405.207 663.626 403.494 676.23C403.1 679.205 411.169 653.498 411.169 653.498L385.352 579.009Z" fill="#37B37F"/>
<path d="M212.562 498.52C212.562 498.52 247.048 553.011 288.318 598.251C316.02 628.669 351.14 651.951 364.571 663.007C407.109 698.017 363.201 603.444 346.943 580.781C330.274 557.636 270.861 515.405 212.562 498.52Z" fill="#37B37F"/>
<path d="M162.349 615.308C162.349 615.308 231.544 646.259 281.311 676.316C339.679 711.531 349.838 715.349 366.421 719.166C419.187 731.203 332.501 642.682 307.9 630.44C282.682 617.887 219.809 606.332 162.349 615.308Z" fill="#37B37F"/>
<path d="M381.48 671.123C381.48 671.123 380.178 668.011 380.281 668.596C381.446 674.906 395.134 703.33 392.924 709.95C392.393 711.514 397.156 698.395 397.156 698.395L381.48 671.123Z" fill="#37B37F"/>
<path d="M376.409 715.607C376.409 715.607 375.244 714.093 375.33 714.386C376.221 717.498 388.641 731.22 386.157 734.573C385.575 735.364 390.868 728.726 390.868 728.726L376.409 715.607Z" fill="#37B37F"/>
<path d="M624.167 59.6504C624.167 59.6504 589.475 134.036 570.887 150.887C570.87 150.887 577.912 103.532 624.167 59.6504Z" fill="#37B37F"/>
<path d="M649.779 93.2847C649.779 93.2847 599.377 148.017 580.173 155.015C580.173 155.032 601.33 112.715 649.779 93.2847Z" fill="#37B37F"/>
<path d="M594.957 27.375C594.957 27.375 590.949 119.592 570.493 146.984C570.493 146.984 545.464 97.5996 594.957 27.375Z" fill="#37B37F"/>
<path d="M653.085 126.297C653.085 126.297 592.919 198.018 575.102 217.844C570.905 222.504 568.249 224.395 566.93 224.361C562.75 224.258 569.294 206.908 575.29 195.439C583.291 180.152 616.475 135.909 653.085 126.297Z" fill="#37B37F"/>
<path d="M566.93 222.848C566.93 222.848 567.307 222.487 566.93 223.123C562.579 229.898 536.093 270.891 533.061 278.388C529.635 286.573 535.682 267.28 535.682 267.28L566.93 222.848Z" fill="#37B37F"/>
<path d="M580.601 154.292C580.601 154.292 581.338 154.103 581.149 154.292C575.873 160.465 561.122 188.493 558.056 195.99C554.63 204.175 559.426 189.112 559.426 189.112L580.601 154.292Z" fill="#37B37F"/>
<path d="M647.586 161.205C647.586 161.205 584.199 260.351 562.065 280.263C533.883 305.591 559.94 250.086 567.016 240.56C574.091 231.034 610.958 174.754 647.586 161.205Z" fill="#37B37F"/>
<path d="M580.601 154.292C580.601 154.292 581.338 154.103 581.149 154.292C575.873 160.465 561.122 188.493 558.056 195.99C554.63 204.175 559.426 189.112 559.426 189.112L580.601 154.292Z" fill="#37B37F"/>
<path d="M551.957 282.824C551.957 282.824 552.368 282.429 551.957 283.116C547.143 290.682 517.882 336.421 514.267 344.778C510.396 353.857 517.557 332.552 517.557 332.552L551.957 282.824Z" fill="#37B37F"/>
<path d="M666.294 215.592C666.294 215.592 576.61 322.683 549.559 342.732C515.141 368.249 552.694 303.08 562.236 292.866C571.778 282.653 627.216 225.909 666.294 215.592Z" fill="#37B37F"/>
<path d="M536.641 346.859C536.641 346.859 538.2 345.139 537.704 345.844C532.324 354.27 500.014 398.977 496.108 408.245C491.791 418.373 498.763 396.208 498.763 396.208L536.641 346.859Z" fill="#37B37F"/>
<path d="M658.636 277.511C658.636 277.511 559.444 386.511 531.45 408.194C495.817 435.706 540.325 363.624 556.617 345.277C573.303 326.483 618.77 289.169 658.636 277.511Z" fill="#37B37F"/>
<path d="M518.242 412.785C518.242 412.785 519.87 410.859 519.338 411.684C513.634 420.677 479.593 468.428 475.293 478.264C470.616 489.01 478.359 465.608 478.359 465.608L518.242 412.785Z" fill="#37B37F"/>
<path d="M640.185 341.907C640.185 341.907 540.993 450.907 513 472.59C477.366 500.102 521.874 428.02 538.166 409.673C554.869 390.896 600.32 353.583 640.185 341.907Z" fill="#37B37F"/>
<path d="M499.808 477.249C499.808 477.249 501.436 475.324 500.905 476.149C495.2 485.142 460.183 534.526 455.9 544.362C451.223 555.109 459.463 529.454 459.463 529.454L499.808 477.249Z" fill="#37B37F"/>
<path d="M637.838 403.311C637.838 403.311 527.185 513.359 499.192 534.973C463.558 562.485 516.477 481.668 532.77 463.304C549.439 444.458 597.904 414.9 637.838 403.311Z" fill="#37B37F"/>
<path d="M488.056 539.598C488.056 539.598 489.015 538.584 488.382 539.598C481.529 550.448 439.145 608.929 433.749 620.69C427.838 633.535 437.74 603.031 437.74 603.031L488.056 539.598Z" fill="#37B37F"/>
<path d="M635.902 480.43C635.902 480.43 594.324 519.497 552.899 549.916C525.077 570.343 496.176 583.704 484.219 590.582C446.375 612.351 509.796 541.92 528.144 525.98C546.92 509.662 596.996 484.746 635.902 480.43Z" fill="#37B37F"/>
<path d="M473.203 592.697C473.203 592.697 474.162 591.683 473.528 592.697C466.676 603.548 420.986 666.791 416.018 678.673C414.835 681.476 422.185 656.543 422.185 656.543L473.203 592.697Z" fill="#37B37F"/>
<path d="M615.824 548.54C615.824 548.54 569.089 592.525 522.628 626.949C491.448 650.06 459.138 665.38 445.792 673.273C403.46 698.051 474.916 618.971 495.474 601.054C516.649 582.535 572.601 554.025 615.824 548.54Z" fill="#37B37F"/>
<path d="M590.623 664.074C590.623 664.074 534.089 680.616 489.769 699.582C437.775 721.85 429.808 723.655 417.988 724.257C380.298 726.303 474.848 660.016 495.525 653.018C516.717 645.847 560.215 646.037 590.623 664.074Z" fill="#37B37F"/>
<path d="M431.727 677.692C432.336 676.954 432.982 676.249 433.663 675.577C429.946 681.166 408.171 704.809 406.355 711.291C405.927 712.822 409.285 699.994 409.285 699.994L431.727 677.692Z" fill="#37B37F"/>
<path d="M413.653 719.287C413.653 719.287 415.075 718.1 414.887 718.358C412.865 721.04 398.834 731.495 398.749 735.003C398.749 735.828 398.749 728.847 398.749 728.847L413.653 719.287Z" fill="#37B37F"/>
<path d="M889.091 128.31L987.546 751.321L974.817 749.224L889.091 128.31Z" fill="#37B37F"/>
<path d="M904.92 27.8911C904.92 27.8911 902.265 108.381 889.09 128.31C889.142 128.31 873.141 79.4763 904.92 27.8911Z" fill="#37B37F"/>
<path d="M952.118 57.6899C952.118 57.6899 921.024 120.865 902.111 130.958C902.093 131.01 905.229 84.9269 952.118 57.6899Z" fill="#37B37F"/>
<path d="M854.211 0C854.211 0 896.577 93.5067 886.572 124.441C886.572 124.441 832.094 78.633 854.211 0Z" fill="#37B37F"/>
<path d="M972.83 90.481C972.83 90.481 938.978 172.312 928.288 195.13C925.752 200.495 923.696 202.799 922.052 202.988C917.118 203.556 915.919 185.019 917.084 172.501C918.574 155.839 934.866 105.991 972.83 90.481Z" fill="#37B37F"/>
<path d="M921.212 201.475C921.212 201.475 921.469 201.062 921.315 201.75C919.602 209.264 909.631 254.797 909.854 262.844C910.094 271.631 907.25 251.237 907.25 251.237L921.212 201.475Z" fill="#37B37F"/>
<path d="M902.23 130.201C902.23 130.201 903.001 129.891 902.881 130.201C899.866 137.268 896.885 167.858 897.125 175.905C897.365 184.692 895.189 168.7 895.189 168.7L902.23 130.201Z" fill="#37B37F"/>
<path d="M984.205 126.47C984.205 126.47 960.598 236.518 944.803 260.058C924.724 290.064 926.917 229.984 930.309 219.254C933.701 208.525 948.229 146.003 984.205 126.47Z" fill="#37B37F"/>
<path d="M902.23 130.201C902.23 130.201 903.001 129.891 902.881 130.201C899.866 137.268 896.885 167.858 897.125 175.905C897.365 184.692 895.189 168.7 895.189 168.7L902.23 130.201Z" fill="#37B37F"/>
<path d="M934.301 264.306C934.301 264.306 934.575 263.841 934.404 264.615C932.691 273.006 921.743 323.801 921.829 332.725C921.915 342.492 919.431 319.88 919.431 319.88L934.301 264.306Z" fill="#37B37F"/>
<path d="M1033.9 178.382C1033.9 178.382 983.537 300.57 962.088 325.073C934.798 356.248 945.505 284.596 951.518 272.852C957.531 261.108 993.388 194.993 1033.9 178.382Z" fill="#37B37F"/>
<path d="M949.103 331.279C949.103 331.279 950.011 329.216 949.822 330.093C947.835 339.447 932.862 389.622 932.965 399.595C933.085 410.48 929.967 387.112 929.967 387.112L949.103 331.279Z" fill="#37B37F"/>
<path d="M1056.57 242.004C1056.57 242.004 996.043 367.614 974.337 393.905C946.687 427.35 961.968 347.565 971.699 326.501C981.653 304.921 1015.81 260.094 1056.57 242.004Z" fill="#37B37F"/>
<path d="M961.198 400.661C961.198 400.661 962.123 398.46 961.934 399.389C959.844 409.362 944.34 462.89 944.34 473.482C944.34 485.054 941.462 460.242 941.462 460.242L961.198 400.661Z" fill="#37B37F"/>
<path d="M1067.84 309.855C1067.84 309.855 1007.35 435.465 985.593 461.774C957.943 495.218 973.224 415.433 982.955 394.369C992.908 372.772 1027.1 327.945 1067.84 309.855Z" fill="#37B37F"/>
<path d="M972.47 468.497C972.47 468.497 973.395 466.296 973.207 467.225C971.117 477.198 955.321 532.566 955.321 543.124C955.321 554.696 951.895 527.528 951.895 527.528L972.47 468.497Z" fill="#37B37F"/>
<path d="M1096.43 372.05C1096.43 372.05 1022.99 500.497 1001.25 526.805C973.601 560.25 994.262 470.302 1003.99 449.238C1013.91 427.624 1055.66 390.139 1096.43 372.05Z" fill="#37B37F"/>
<path d="M990.595 533.271C990.595 533.271 991.195 532.101 990.972 533.271C988.557 545.307 968.701 610.975 968.376 623.682C968.016 637.576 964.024 605.249 964.024 605.249L990.595 533.271Z" fill="#37B37F"/>
<path d="M1133.58 450.149C1133.58 450.149 1104.83 496.129 1071.9 533.373C1049.73 558.375 1022.7 576.361 1012.22 585.268C978.997 613.21 1017.36 532.152 1030.67 513.186C1044.25 493.738 1090.18 460.672 1133.58 450.149Z" fill="#37B37F"/>
<path d="M1000.31 589.137C1000.31 589.137 1000.91 587.968 1000.69 589.137C998.27 601.174 976.976 672.172 977.199 684.88C977.199 687.889 973.121 661.597 973.121 661.597L1000.31 589.137Z" fill="#37B37F"/>
<path d="M1144.85 521.956C1144.85 521.956 1112.56 573.713 1075.72 615.789C1050.97 644.041 1021.06 664.675 1009.32 674.648C972.385 706.339 1015.73 615.274 1030.68 593.831C1046 571.994 1097 534.388 1144.85 521.956Z" fill="#37B37F"/>
<path d="M1174.32 642.441C1174.32 642.441 1116.55 668.079 1074.3 694.25C1024.76 724.943 1016.4 727.986 1002.81 730.531C959.793 738.561 1036.61 656.764 1057.25 646.413C1078.43 635.804 1129.45 629.098 1174.32 642.441Z" fill="#37B37F"/>
<path d="M995.152 681.388C995.488 680.547 995.883 679.731 996.334 678.947C994.844 685.171 981.43 712.477 982.629 719.286C982.903 720.903 980.299 707.439 980.299 707.439L995.152 681.388Z" fill="#37B37F"/>
<path d="M995.204 726.199C995.204 726.199 996.266 724.772 996.18 725.064C995.187 728.091 984.086 740.849 985.782 744.392C986.176 745.234 982.561 738.184 982.561 738.184L995.204 726.199Z" fill="#37B37F"/>
<path d="M856.917 52.2891C856.917 52.2891 877.852 129.22 891.18 147.464C891.112 147.464 889.759 99.6443 856.917 52.2891Z" fill="#37B37F"/>
<path d="M833.55 83.9282C833.55 83.9282 868.721 142.391 883.351 150.886C883.351 150.886 870.297 106.935 833.55 83.9282Z" fill="#37B37F"/>
<path d="M883.026 22.3013C883.026 22.3013 877.886 114.604 891.832 143.595C891.814 143.664 916.073 96.2056 883.026 22.3013Z" fill="#37B37F"/>
<path d="M827.965 116.633C827.965 116.633 869.372 192.842 881.775 214.009C884.688 218.978 886.572 221.059 887.686 221.145C891.009 221.368 887.36 203.537 883.626 191.621C878.623 175.733 856.215 129.031 827.965 116.633Z" fill="#37B37F"/>
<path d="M887.823 219.614C887.823 219.614 887.548 219.236 887.823 219.889C890.684 226.974 908.038 269.944 909.803 277.665C911.739 286.09 908.706 266.385 908.706 266.385L887.823 219.614Z" fill="#37B37F"/>
<path d="M883.077 150.112C883.077 150.112 882.512 149.871 882.649 150.112C886.281 156.68 895.515 185.792 897.28 193.512C899.215 201.938 896.817 186.497 896.817 186.497L883.077 150.112Z" fill="#37B37F"/>
<path d="M829.181 151.9C829.181 151.9 870.691 255.741 886.521 277.321C906.65 304.833 890.906 247.367 886.144 237.291C881.381 227.214 857.123 168.235 829.181 151.9Z" fill="#37B37F"/>
<path d="M883.077 150.112C883.077 150.112 882.512 149.871 882.649 150.112C886.281 156.68 895.515 185.792 897.28 193.512C899.215 201.938 896.817 186.497 896.817 186.497L883.077 150.112Z" fill="#37B37F"/>
<path d="M894.281 280.657C894.281 280.657 893.99 280.227 894.281 280.949C897.434 288.859 916.552 336.833 918.677 345.396C920.938 354.75 917.152 332.93 917.152 332.93L894.281 280.657Z" fill="#37B37F"/>
<path d="M809.497 204.758C809.497 204.758 871.171 318.555 890.907 340.599C915.987 368.713 891.969 300.758 885.27 289.891C878.572 279.024 839.631 218.067 809.497 204.758Z" fill="#37B37F"/>
<path d="M900.809 345.758C900.809 345.758 899.729 343.85 900.055 344.658C903.567 353.479 925.221 400.593 927.465 410.137C929.984 420.574 926.42 397.997 926.42 397.997L900.809 345.758Z" fill="#37B37F"/>
<path d="M810.045 267.176C810.045 267.176 879.137 383.604 899.455 407.367C925.307 437.63 896.389 362.179 885.082 342.628C873.484 322.613 840.694 281.878 810.045 267.176Z" fill="#37B37F"/>
<path d="M909.529 412.99C909.529 412.99 908.415 410.944 908.758 411.821C912.492 421.226 935.277 471.505 937.881 481.667C940.64 492.758 936.579 468.805 936.579 468.805L909.529 412.99Z" fill="#37B37F"/>
<path d="M818.902 332.896C818.902 332.896 887.994 449.324 908.312 473.088C934.164 503.351 905.246 427.899 893.939 408.348C882.392 388.333 849.585 347.598 818.902 332.896Z" fill="#37B37F"/>
<path d="M918.437 478.71C918.437 478.71 917.323 476.664 917.666 477.541C921.401 486.946 944.82 538.944 947.338 549.107C950.096 560.197 945.83 533.941 945.83 533.941L918.437 478.71Z" fill="#37B37F"/>
<path d="M815.339 394.317C815.339 394.317 893.459 512.619 913.777 536.4C939.629 566.663 904.8 481.823 893.493 462.272C881.895 442.24 845.987 409.001 815.339 394.317Z" fill="#37B37F"/>
<path d="M922.189 541.918C922.189 541.918 921.521 540.835 921.932 541.918C926.369 553.267 954.859 614.911 958.114 627.068C961.66 640.343 956.521 609.133 956.521 609.133L922.189 541.918Z" fill="#37B37F"/>
<path d="M809.961 471.523C809.961 471.523 839.513 513.72 869.733 547.181C890.017 569.707 911.808 585.268 920.682 593.04C948.829 617.664 904.698 542.487 891.558 525.189C878.093 507.529 840.506 478.814 809.961 471.523Z" fill="#37B37F"/>
<path d="M929.247 596.066C929.247 596.066 928.579 594.983 928.99 596.066C933.427 607.415 964.127 674.063 967.022 686.271C967.708 689.16 964.093 663.694 964.093 663.694L929.247 596.066Z" fill="#37B37F"/>
<path d="M819.827 541.075C819.827 541.075 853.046 588.568 886.898 626.5C909.631 651.966 933.907 669.729 943.843 678.567C975.28 706.543 925.53 622.116 910.762 602.599C895.635 582.601 853.714 549.862 819.827 541.075Z" fill="#37B37F"/>
<path d="M829.541 658.347C829.541 658.347 872.987 679.187 906.531 701.524C945.933 727.729 951.998 730.102 961.352 731.667C991.075 736.584 921.949 663.179 906.085 654.598C889.913 645.76 855.341 642.665 829.541 658.347Z" fill="#37B37F"/>
<path d="M954.602 684.105C954.602 684.105 953.026 681.302 953.266 681.852C955.716 687.716 970.911 713.01 971.768 719.681C971.973 721.246 970.449 708.178 970.449 708.178L954.602 684.105Z" fill="#37B37F"/>
<path d="M965.258 727.04C965.258 727.04 964.23 725.751 964.35 726.009C965.703 728.846 975.931 740.349 975.691 743.857C975.691 744.683 976.29 737.719 976.29 737.719L965.258 727.04Z" fill="#37B37F"/>
<path d="M1369.1 278.903L1269.77 758.542L1280.67 756.753L1369.1 278.903Z" fill="#37B37F"/>
<path d="M1358.12 202.023C1358.12 202.023 1358.38 263.788 1369.1 278.903C1369.1 278.903 1383.9 241.177 1358.12 202.023Z" fill="#37B37F"/>
<path d="M1317.19 225.564C1317.19 225.564 1342.1 273.711 1357.95 281.139C1357.95 281.225 1356.44 245.803 1317.19 225.564Z" fill="#37B37F"/>
<path d="M1401.99 179.911C1401.99 179.911 1363.59 252.285 1371.35 275.894C1371.35 275.894 1418.87 239.956 1401.99 179.911Z" fill="#37B37F"/>
<path d="M1298.74 250.996C1298.74 250.996 1325.54 313.363 1334.12 330.73C1336.14 334.805 1337.84 336.559 1339.26 336.679C1343.46 337.04 1344.93 322.803 1344.24 313.208C1343.32 300.432 1330.68 262.31 1298.74 250.996Z" fill="#37B37F"/>
<path d="M1339.93 335.509C1339.93 335.509 1339.72 335.183 1339.82 335.716C1341.04 341.459 1348.39 376.279 1348.06 382.452C1347.64 389.192 1350.57 373.51 1350.57 373.51L1339.93 335.509Z" fill="#37B37F"/>
<path d="M1357.86 280.52C1357.86 280.52 1357.21 280.297 1357.3 280.52C1359.7 285.902 1361.46 309.356 1361.07 315.529C1360.64 322.27 1362.9 309.975 1362.9 309.975L1357.86 280.52Z" fill="#37B37F"/>
<path d="M1288.17 278.833C1288.17 278.833 1305.53 362.969 1318.38 380.852C1334.72 403.618 1334.36 357.518 1331.72 349.333C1329.08 341.148 1318.31 293.26 1288.17 278.833Z" fill="#37B37F"/>
<path d="M1357.86 280.52C1357.86 280.52 1357.21 280.297 1357.3 280.52C1359.7 285.902 1361.46 309.356 1361.07 315.529C1360.64 322.27 1362.9 309.975 1362.9 309.975L1357.86 280.52Z" fill="#37B37F"/>
<path d="M1327.23 383.914C1327.23 383.914 1327.01 383.552 1327.13 384.154C1328.43 390.568 1336.43 429.412 1336.14 436.273C1335.82 443.77 1338.5 426.368 1338.5 426.368L1327.23 383.914Z" fill="#37B37F"/>
<path d="M1244.55 319.312C1244.55 319.312 1284.4 412.423 1302.05 430.942C1324.51 454.499 1317.18 399.647 1312.33 390.705C1307.48 381.764 1278.63 331.503 1244.55 319.312Z" fill="#37B37F"/>
<path d="M1313 435.534C1313 435.534 1312.28 433.969 1312.41 434.622C1313.87 441.776 1325.38 480.086 1325.04 487.755C1324.66 496.112 1327.9 478.143 1327.9 478.143L1313 435.534Z" fill="#37B37F"/>
<path d="M1223.67 368.472C1223.67 368.472 1272.09 464.077 1289.94 483.971C1312.65 509.265 1301.62 448.223 1293.86 432.18C1285.93 415.759 1257.92 381.798 1223.67 368.472Z" fill="#37B37F"/>
<path d="M1300.94 488.976C1300.94 488.976 1300.2 487.256 1300.35 488.013C1301.88 495.63 1313.75 536.52 1313.49 544.653C1313.2 553.543 1316.27 534.457 1316.27 534.457L1300.94 488.976Z" fill="#37B37F"/>
<path d="M1212.38 420.711C1212.38 420.711 1260.8 516.316 1278.65 536.211C1301.36 561.505 1290.33 500.462 1282.57 484.419C1274.6 467.998 1246.63 434.055 1212.38 420.711Z" fill="#37B37F"/>
<path d="M1289.65 541.213C1289.65 541.213 1288.91 539.493 1289.06 540.25C1290.59 547.867 1302.67 590.116 1302.41 598.283C1302.12 607.173 1305.71 586.247 1305.71 586.247L1289.65 541.213Z" fill="#37B37F"/>
<path d="M1186.53 468.856C1186.53 468.856 1245.87 566.456 1263.73 586.35C1286.44 611.644 1271.07 542.881 1263.33 526.838C1255.37 510.4 1220.78 482.183 1186.53 468.856Z" fill="#37B37F"/>
<path d="M1272.6 591.183C1272.6 591.183 1272.12 590.288 1272.27 591.183C1273.99 600.382 1289.3 650.54 1289.27 660.289C1289.27 670.95 1293.43 646.086 1293.43 646.086L1272.6 591.183Z" fill="#37B37F"/>
<path d="M1152.97 529.331C1152.97 529.331 1176.3 564.237 1203.47 592.368C1221.72 611.283 1244.3 624.764 1253 631.384C1280.6 652.379 1249.97 590.683 1239.07 576.36C1227.9 561.503 1189.61 536.811 1152.97 529.331Z" fill="#37B37F"/>
<path d="M1262.94 634.205C1262.94 634.205 1262.46 633.31 1262.61 634.205C1264.32 643.404 1280.74 697.62 1280.24 707.387C1280.12 709.691 1284.28 689.452 1284.28 689.452L1262.94 634.205Z" fill="#37B37F"/>
<path d="M1141.56 584.632C1141.56 584.632 1167.77 623.922 1198.09 655.716C1218.46 677.072 1243.48 692.445 1253.15 699.976C1283.82 723.809 1249.16 654.478 1236.97 638.28C1224.46 621.687 1181.99 593.504 1141.56 584.632Z" fill="#37B37F"/>
<path d="M1113.46 677.502C1113.46 677.502 1162.01 696.417 1197.41 715.899C1238.83 738.785 1245.87 741.004 1257.37 742.775C1293.81 748.363 1230.42 686.599 1213.1 678.947C1195.27 671.106 1151.99 666.652 1113.46 677.502Z" fill="#37B37F"/>
<path d="M1265.04 704.963C1265.04 704.963 1264 702.676 1264.1 703.106C1265.22 707.869 1275.96 728.64 1274.81 733.885C1274.54 735.123 1277.09 724.754 1277.09 724.754L1265.04 704.963Z" fill="#37B37F"/>
<path d="M1263.88 739.37C1263.88 739.37 1263.01 738.287 1263.07 738.51C1263.85 740.832 1272.98 750.547 1271.45 753.212C1271.09 753.866 1274.35 748.415 1274.35 748.415L1263.88 739.37Z" fill="#37B37F"/>
<path d="M1398.38 220.095C1398.38 220.095 1378.64 279.453 1366.89 293.621C1366.91 293.621 1369.24 256.91 1398.38 220.095Z" fill="#37B37F"/>
<path d="M1417.5 244.049C1417.5 244.049 1386.1 289.444 1373.42 296.133C1373.42 296.15 1385.6 262.31 1417.5 244.049Z" fill="#37B37F"/>
<path d="M1376.91 197.433C1376.91 197.433 1378.92 268.225 1366.41 290.681C1366.4 290.664 1346.92 254.606 1376.91 197.433Z" fill="#37B37F"/>
<path d="M1421.44 269.102C1421.44 269.102 1384.28 328.184 1373.21 344.588C1370.61 348.44 1368.95 350.074 1368.07 350.142C1365.23 350.366 1368.79 336.627 1372.27 327.428C1376.83 315.15 1397.08 279.006 1421.44 269.102Z" fill="#37B37F"/>
<path d="M1367.92 348.972C1367.92 348.972 1368.16 348.68 1367.92 349.179C1365.32 354.664 1349.47 387.885 1347.76 393.886C1345.91 400.386 1348.97 385.288 1348.97 385.288L1367.92 348.972Z" fill="#37B37F"/>
<path d="M1373.68 295.565C1373.68 295.565 1374.17 295.375 1374.05 295.565C1370.8 300.723 1362.21 323.077 1360.52 329.095C1358.67 335.595 1361.08 323.696 1361.08 323.696L1373.68 295.565Z" fill="#37B37F"/>
<path d="M1419.49 296.183C1419.49 296.183 1381.56 376.484 1367.54 393.249C1349.71 414.605 1364.56 370.311 1368.86 362.522C1373.16 354.732 1395.33 309.097 1419.49 296.183Z" fill="#37B37F"/>
<path d="M1373.68 295.565C1373.68 295.565 1374.17 295.375 1374.05 295.565C1370.8 300.723 1362.21 323.077 1360.52 329.095C1358.67 335.595 1361.08 323.696 1361.08 323.696L1373.68 295.565Z" fill="#37B37F"/>
<path d="M1360.83 395.914C1360.83 395.914 1361.08 395.57 1360.83 396.138C1357.95 402.259 1340.44 439.332 1338.45 446.004C1336.29 453.225 1340.06 436.409 1340.06 436.409L1360.83 395.914Z" fill="#37B37F"/>
<path d="M1434.97 336.506C1434.97 336.506 1379.6 424.717 1362.27 441.947C1340.22 463.87 1362.35 411.374 1368.31 402.948C1374.28 394.523 1408.98 347.116 1434.97 336.506Z" fill="#37B37F"/>
<path d="M1353.72 446.004C1353.72 446.004 1354.68 444.526 1354.39 445.145C1351.16 452.023 1331.57 488.425 1329.36 495.801C1326.94 503.849 1330.54 486.464 1330.54 486.464L1353.72 446.004Z" fill="#37B37F"/>
<path d="M1432.95 384.394C1432.95 384.394 1371.28 474.72 1353.34 493.256C1330.57 516.83 1357.08 458.522 1367.2 443.39C1377.57 427.846 1406.52 396.138 1432.95 384.394Z" fill="#37B37F"/>
<path d="M1344.62 497.744C1344.62 497.744 1345.63 496.163 1345.31 496.833C1341.88 504.107 1321.32 543.019 1318.84 550.843C1316.22 559.44 1320.26 540.938 1320.26 540.938L1344.62 497.744Z" fill="#37B37F"/>
<path d="M1423.73 434.999C1423.73 434.999 1362.06 525.325 1344.12 543.861C1321.36 567.435 1347.86 509.127 1357.98 493.995C1368.35 478.434 1397.28 446.709 1423.73 434.999Z" fill="#37B37F"/>
<path d="M1335.4 548.315C1335.4 548.315 1336.41 546.733 1336.09 547.404C1332.66 554.677 1311.45 594.914 1309.04 602.755C1306.42 611.352 1310.75 591.097 1310.75 591.097L1335.4 548.315Z" fill="#37B37F"/>
<path d="M1425.36 482.097C1425.36 482.097 1355.91 573.987 1337.99 592.524C1315.22 616.098 1346.98 550.499 1357.11 535.333C1367.42 519.806 1398.82 493.807 1425.36 482.097Z" fill="#37B37F"/>
<path d="M1330.64 596.891C1330.64 596.891 1331.24 596.049 1330.86 596.891C1326.8 605.678 1301 653.377 1297.94 662.765C1294.51 673.082 1299.74 649.009 1299.74 649.009L1330.64 596.891Z" fill="#37B37F"/>
<path d="M1427.93 541.316C1411.35 561.852 1393.74 581.532 1375.17 600.278C1357.33 617.851 1338.4 630.094 1330.62 636.181C1306.06 655.474 1345.49 597.165 1357.11 583.685C1369.05 569.877 1401.75 547.317 1427.93 541.316Z" fill="#37B37F"/>
<path d="M1323.27 638.554C1323.27 638.554 1323.87 637.711 1323.5 638.554C1319.44 647.34 1291.63 698.926 1288.87 708.331C1288.22 710.55 1291.92 690.964 1291.92 690.964L1323.27 638.554Z" fill="#37B37F"/>
<path d="M1417.81 594.845C1417.81 594.845 1388.34 631.763 1358.58 661.339C1338.59 681.199 1317.47 695.178 1308.8 702.091C1281.39 723.997 1325.79 658.501 1338.85 643.318C1352.23 627.757 1388.75 602.05 1417.81 594.845Z" fill="#37B37F"/>
<path d="M1406.64 684.999C1406.64 684.999 1369.12 701.592 1340.01 719.199C1305.87 739.834 1300.61 741.759 1292.56 743.083C1267.13 747.279 1327.85 689.968 1341.52 683.159C1355.53 676.212 1385.05 673.271 1406.64 684.999Z" fill="#37B37F"/>
<path d="M1299.5 706.493C1299.5 706.493 1300.9 704.327 1300.7 704.774C1298.47 709.313 1284.9 728.933 1283.99 734.005C1283.79 735.209 1285.4 725.15 1285.4 725.15L1299.5 706.493Z" fill="#37B37F"/>
<path d="M1289.35 739.592C1289.35 739.592 1290.26 738.595 1290.14 738.784C1288.91 740.985 1279.86 749.961 1280.05 752.643C1280.05 753.28 1279.69 747.932 1279.69 747.932L1289.35 739.592Z" fill="#37B37F"/>
<path d="M609.571 734.725C603.355 734.346 597.326 732.449 592.008 729.197C586.69 725.945 582.245 721.438 579.059 716.068C565.885 693.577 565.217 667.337 565.971 659.17C575.17 558.407 621.888 97.0117 742.427 86.0069C876.053 73.7984 825.755 652.292 789.281 708.726C752.808 765.16 645.376 737.098 645.376 737.098L609.571 734.725Z" fill="#52CB96"/>
<path d="M725.843 273.778C725.843 273.778 759.404 237.892 771.91 224.428C784.416 210.965 810.936 170.47 810.936 170.47L812.255 176.007C812.255 176.007 750.804 267.382 728.567 291.919C706.33 316.456 724.301 290.664 724.301 290.664L725.843 273.795" fill="#37B37F"/>
<path d="M714.399 348.113C714.399 348.113 683.562 309.303 673.42 295.891C663.278 282.479 640.476 240.506 640.476 240.506L639.123 244.839C639.123 244.839 689.798 339.687 707.992 364.104C711.144 368.351 711.709 362.556 711.709 362.556L713.748 352.239" fill="#37B37F"/>
<path d="M733.056 206.339C733.056 206.339 712.96 180.168 706.296 171.123C699.632 162.079 684.847 133.724 684.847 133.724L683.528 135.874C683.528 135.874 716.9 200.733 728.773 217.206C730.828 220.06 731.24 216.14 731.24 216.14L732.627 209.159" fill="#37B37F"/>
<path d="M710.699 375.384C710.699 375.384 771.362 343.126 796.631 312.743C821.369 282.892 825.549 274.105 825.549 274.105L826.046 278.473C826.046 278.473 771.533 363.468 710.236 403.154C704.411 406.937 709.465 397.721 709.465 397.721L710.75 375.367" fill="#37B37F"/>
<path d="M698.604 423.168C698.604 423.168 653.051 390.498 637.221 361.077C621.683 332.172 618.822 321.907 618.822 321.907L617.794 326.137C617.794 326.137 650.858 408.364 694.115 443.201C694.526 443.527 695.828 443.201 695.828 443.201L698.518 423.375" fill="#37B37F"/>
<path d="M702.818 471.934C702.818 471.934 768.312 437.698 795.98 406.232C823.134 375.28 828.222 366.236 828.222 366.236V370.345C828.222 370.345 767.816 458.229 701.448 500.03C695.126 504.003 700.779 494.562 700.779 494.562L702.75 471.934" fill="#37B37F"/>
<path d="M687.365 519.633C687.365 519.633 637.153 483.523 619.781 450.853C602.65 418.818 600.645 409.791 600.645 409.791L599.617 415.173C599.617 415.173 634.634 503.367 682.277 541.866C682.723 542.227 684.196 541.866 684.196 541.866L687.246 519.839" fill="#37B37F"/>
<path d="M692.008 563.876C692.008 563.876 761.117 528.11 790.652 495.87C819.622 464.231 825.618 454.602 825.618 454.602L825.378 458.883C825.378 458.883 760.278 548.83 690.038 592.214C683.357 596.34 689.438 586.711 689.438 586.711L691.922 563.876" fill="#37B37F"/>
<path d="M678.32 609.031C678.32 609.031 625.469 570.721 607.498 535.557C589.886 501.046 587.197 489.491 587.197 489.491L586.203 495.785C586.203 495.785 622.454 592.266 672.547 633.345C673.009 633.723 674.602 633.242 674.602 633.242L678.234 609.255" fill="#37B37F"/>
<path d="M680.735 664.554C680.735 664.554 746.23 630.319 773.897 598.852C801.051 567.901 805.556 559.303 805.556 559.303L806.79 562.605C806.79 562.605 745.801 650.867 679.434 692.668C673.112 696.64 676.881 686.719 676.881 686.719L680.735 664.589" fill="#37B37F"/>
<path d="M665.266 712.253C665.266 712.253 615.053 676.143 597.681 643.473C580.55 611.438 573.149 589.515 573.149 589.515L572.412 595.533C572.412 595.533 612.569 695.918 660.212 734.417C660.657 734.779 662.131 734.417 662.131 734.417L665.18 712.391" fill="#37B37F"/>
<path d="M752.568 86.4386L728.276 263.479L671.467 740.796L649.128 737.959L747.309 95.9819L749.485 85.6133L752.568 86.4386Z" fill="#37B37F"/>
<path d="M999.264 733.455C988.814 730.016 973.995 689.178 974.166 680.546C975.879 597.477 986.878 208.146 1120.61 184.933C1268.95 159.14 1256.05 661.821 1220.14 712.047C1184.23 762.274 1015.68 742.053 1015.68 742.053L999.264 733.455Z" fill="#52CB96"/>
<path d="M1118.09 339.689C1118.09 339.689 1152.51 306.519 1165.34 294.07C1178.17 281.621 1204.36 245.58 1204.36 245.58L1206.3 249.93C1206.3 249.93 1145.47 331.555 1122.71 354.15C1099.96 376.744 1117.85 353.634 1117.85 353.634L1118.12 339.723" fill="#37B37F"/>
<path d="M1111.65 401.591C1111.65 401.591 1073.96 373.666 1061.38 363.951C1048.81 354.236 1019.84 322.786 1019.84 322.786L1018.69 326.466C1018.69 326.466 1083.45 397.636 1105.84 415.347C1109.73 418.425 1109.87 413.628 1109.87 413.628L1111.27 405.03" fill="#37B37F"/>
<path d="M1120.42 283.994C1120.42 283.994 1095.73 265.08 1087.49 258.511C1079.25 251.943 1060.32 230.621 1060.32 230.621L1059.02 232.53C1059.02 232.53 1101.85 281.346 1116.53 293.349C1119.08 295.429 1119.19 292.197 1119.19 292.197L1120.14 286.35" fill="#37B37F"/>
<path d="M1109.87 424.185C1109.87 424.185 1174.97 390.792 1200.46 363.04C1225.54 335.82 1229.46 328.168 1229.46 328.168L1230.39 331.607C1230.39 331.607 1176.76 407.265 1111.68 446.814C1105.5 450.58 1110.35 442.481 1110.35 442.481L1109.87 424.151" fill="#37B37F"/>
<path d="M1100.46 464.49C1100.46 464.49 1046.77 443.323 1026.55 421.245C1006.72 399.579 1002.57 391.549 1002.57 391.549L1001.8 395.108C1001.8 395.108 1045.79 458.094 1097.09 481.307C1097.57 481.531 1099.02 481.049 1099.02 481.049L1100.32 464.593" fill="#37B37F"/>
<path d="M1109.35 503.66C1109.35 503.66 1179.59 468.049 1207.82 439.161C1235.53 410.824 1240.37 402.794 1240.37 402.794L1240.8 406.13C1240.8 406.13 1180.84 484.78 1110.28 526.667C1103.56 530.656 1109.06 522.3 1109.06 522.3L1109.33 503.66" fill="#37B37F"/>
<path d="M1096.14 544.309C1096.14 544.309 1036.97 520.924 1014.75 496.421C992.942 472.348 989.859 465.281 989.859 465.281L989.208 469.7C989.208 469.7 1035.89 537.311 1092.43 562.983C1092.96 563.224 1094.57 562.691 1094.57 562.691L1096.09 544.412" fill="#37B37F"/>
<path d="M1105.12 579.75C1105.12 579.75 1179.28 542.471 1209.52 512.689C1239.18 483.457 1245.05 474.963 1245.05 474.963L1245.15 478.402C1245.15 478.402 1180.05 559.219 1105.45 602.911C1098.34 607.055 1104.3 598.509 1104.3 598.509L1105.12 579.595" fill="#37B37F"/>
<path d="M1093.71 618.111C1093.71 618.111 1031.33 593.213 1008.31 566.664C985.662 540.665 981.687 531.586 981.687 531.586L981.122 536.744C981.122 536.744 1029.88 610.958 1089.36 638.384C1089.91 638.642 1091.64 638.058 1091.64 638.058L1093.64 618.111" fill="#37B37F"/>
<path d="M1101.16 662.956C1101.16 662.956 1171.4 627.345 1199.64 598.457C1227.34 570.12 1231.62 562.502 1231.62 562.502L1233.33 565.047C1233.33 565.047 1172.76 644.145 1102.17 685.963C1095.46 689.952 1098.75 681.424 1098.75 681.424L1101.16 662.956" fill="#37B37F"/>
<path d="M1087.97 703.639C1087.97 703.639 1028.8 680.253 1006.58 655.75C984.771 631.677 974.561 614.757 974.561 614.757L974.252 619.744C974.252 619.744 1027.7 696.657 1084.25 722.33C1084.79 722.57 1086.4 722.037 1086.4 722.037L1087.92 703.759" fill="#37B37F"/>
<path d="M1131.91 184.125L1119.94 331.04L1095.77 748.553L1069.59 747.813L1126.86 192.499L1128.39 183.815L1131.91 184.125Z" fill="#37B37F"/>
<path d="M439.454 364.208L310.812 738.407L321.571 737.874L439.454 364.208Z" fill="#37B37F"/>
<path d="M433.749 302.031C433.749 302.031 429.946 351.278 439.454 364.209C439.454 364.191 456.414 335.355 433.749 302.031Z" fill="#37B37F"/>
<path d="M392.153 317.455C392.153 317.455 413.379 357.811 428.404 365.085C428.404 365.085 429.243 336.782 392.153 317.455Z" fill="#37B37F"/>
<path d="M478.137 287.982C478.137 287.982 435.804 342.525 441.852 361.921C441.852 362.042 490.711 337.246 478.137 287.982Z" fill="#37B37F"/>
<path d="M372.435 336.249C372.435 336.249 394.552 388.143 401.832 402.69C403.546 406.129 405.087 407.642 406.441 407.849C410.518 408.485 412.9 397.257 412.865 389.553C412.882 379.236 402.946 347.89 372.435 336.249Z" fill="#37B37F"/>
<path d="M407.195 406.938C407.195 406.938 407.006 406.663 407.075 407.093C407.88 411.77 412.865 440.142 412.077 445.025C411.221 450.373 415.11 438.147 415.11 438.147L407.195 406.938Z" fill="#37B37F"/>
<path d="M428.301 364.586C428.301 364.586 427.684 364.362 427.753 364.586C429.74 369.074 429.928 387.902 429.14 392.803C428.284 398.15 431.299 388.521 431.299 388.521L428.301 364.586Z" fill="#37B37F"/>
<path d="M360.254 357.537C360.254 357.537 371.732 426.007 383.125 441.328C397.635 460.81 400.256 424.03 398.252 417.255C396.248 410.48 388.898 371.516 360.254 357.537Z" fill="#37B37F"/>
<path d="M428.301 364.586C428.301 364.586 427.684 364.362 427.753 364.586C429.74 369.074 429.928 387.902 429.14 392.803C428.284 398.15 431.299 388.521 431.299 388.521L428.301 364.586Z" fill="#37B37F"/>
<path d="M391.588 444.492C391.588 444.492 391.399 444.182 391.485 444.663C392.342 449.822 397.635 481.512 396.881 486.946C396.076 492.896 399.845 479.243 399.845 479.243L391.588 444.492Z" fill="#37B37F"/>
<path d="M314.924 386.234C314.924 386.234 347.799 463.715 363.869 479.913C384.307 500.547 380.726 456.201 376.598 448.687C372.469 441.173 347.474 398.735 314.924 386.234Z" fill="#37B37F"/>
<path d="M374.268 484.47C374.268 484.47 373.668 483.164 373.754 483.697C374.713 489.509 383.467 521.01 382.628 527.08C381.72 533.717 386.054 519.651 386.054 519.651L374.268 484.47Z" fill="#37B37F"/>
<path d="M291.248 423.72C291.248 423.72 332.364 503.883 348.519 521.198C369.077 543.225 362.224 493.686 355.765 480.24C349.084 466.484 323.918 437.132 291.248 423.72Z" fill="#37B37F"/>
<path d="M358.969 526.082C358.969 526.082 358.369 524.69 358.455 525.257C359.449 531.464 368.392 565.012 367.586 571.477C366.713 578.544 371.013 563.568 371.013 563.568L358.969 526.082Z" fill="#37B37F"/>
<path d="M276.789 464.438C276.789 464.438 317.905 544.602 334.06 561.917C354.618 583.944 347.765 534.405 341.306 520.959C334.608 507.203 309.442 477.851 276.789 464.438Z" fill="#37B37F"/>
<path d="M344.493 566.799C344.493 566.799 343.893 565.406 343.979 565.974C344.973 572.181 354.018 606.864 353.23 613.329C352.356 620.396 357.256 604.026 357.256 604.026L344.493 566.799Z" fill="#37B37F"/>
<path d="M248.333 500.685C248.333 500.685 300.002 583.342 316.174 600.64C336.732 622.667 326.213 566.594 319.601 553.164C312.988 539.426 280.969 514.114 248.333 500.685Z" fill="#37B37F"/>
<path d="M324.552 605.232C324.552 605.232 324.141 604.475 324.243 605.232C325.357 612.712 337.006 653.928 336.338 661.7C335.602 670.195 341.341 650.713 341.341 650.713L324.552 605.232Z" fill="#37B37F"/>
<path d="M211.5 546.149C225.138 565.455 240.285 583.641 256.796 600.537C273.414 617.096 294.623 629.768 302.709 635.684C328.406 654.598 302.418 603.013 292.704 590.633C282.682 577.977 246.894 555.108 211.5 546.149Z" fill="#37B37F"/>
<path d="M312.268 638.744C312.268 638.744 311.857 637.987 311.96 638.744C313.074 646.224 325.545 690.776 324.397 698.514C324.123 700.354 329.537 684.552 329.537 684.552L312.268 638.744Z" fill="#37B37F"/>
<path d="M196.733 589.292C196.733 589.292 219.792 622.753 247.391 650.575C265.91 669.266 289.398 683.555 298.374 690.347C326.83 711.841 297.467 653.756 286.588 639.845C275.435 625.608 235.724 599.677 196.733 589.292Z" fill="#37B37F"/>
<path d="M163.154 661.03C163.154 661.03 209.41 680.065 242.714 698.498C281.757 720.129 288.49 722.468 299.625 724.824C334.916 732.252 276.943 677.847 260.496 670.315C243.639 662.612 201.564 655.528 163.154 661.03Z" fill="#37B37F"/>
<path d="M309.681 695.316C309.681 695.316 308.808 693.408 308.876 693.769C309.664 697.655 318.812 715.091 317.322 719.183C316.979 720.146 320.149 712.099 320.149 712.099L309.681 695.316Z" fill="#37B37F"/>
<path d="M306.289 722.639C306.289 722.639 305.501 721.71 305.57 721.882C306.169 723.791 314.478 732.199 312.799 734.28C312.405 734.761 315.952 730.686 315.952 730.686L306.289 722.639Z" fill="#37B37F"/>
<path d="M471.969 319.725C471.969 319.725 448.773 365.481 436.336 375.798C436.336 375.798 441.047 346.686 471.969 319.725Z" fill="#37B37F"/>
<path d="M489.101 340.394C489.101 340.394 455.403 374.079 442.554 378.309C453.408 360.801 469.797 347.451 489.101 340.394Z" fill="#37B37F"/>
<path d="M452.439 299.898C452.439 299.898 449.767 356.505 436.044 373.356C436.044 373.356 419.341 343.024 452.439 299.898Z" fill="#37B37F"/>
<path d="M491.311 360.665C491.311 360.665 451.086 404.719 439.162 416.893C436.353 419.747 434.64 420.917 433.697 420.899C430.905 420.899 435.273 410.187 439.282 403.137C444.644 393.731 466.83 366.563 491.311 360.665Z" fill="#37B37F"/>
<path d="M433.697 419.971C433.697 419.971 433.954 419.748 433.697 420.143C430.785 424.304 413.139 449.495 411.049 454.086C408.805 459.107 412.763 447.208 412.763 447.208L433.697 419.971Z" fill="#37B37F"/>
<path d="M442.846 377.861C442.846 377.861 443.343 377.741 443.205 377.861C439.676 381.661 429.809 398.873 427.787 403.482C425.543 408.503 428.695 399.217 428.695 399.217L442.846 377.861Z" fill="#37B37F"/>
<path d="M487.628 382.091C487.628 382.091 445.244 442.996 430.442 455.221C411.598 470.697 429.02 436.685 433.749 430.839C438.477 424.993 463.147 390.43 487.628 382.091Z" fill="#37B37F"/>
<path d="M442.846 377.861C442.846 377.861 443.343 377.741 443.205 377.861C439.676 381.661 429.809 398.873 427.787 403.482C425.543 408.503 428.695 399.217 428.695 399.217L442.846 377.861Z" fill="#37B37F"/>
<path d="M423.675 456.804C423.675 456.804 423.949 456.563 423.675 456.993C420.455 461.635 400.89 489.766 398.526 494.822C395.939 500.393 400.719 487.308 400.719 487.308L423.675 456.804Z" fill="#37B37F"/>
<path d="M500.151 415.501C500.151 415.501 440.19 481.29 422.099 493.601C399.074 509.266 424.189 469.236 430.665 463.011C437.141 456.787 474.008 421.846 500.151 415.501Z" fill="#37B37F"/>
<path d="M413.448 496.162C413.448 496.162 414.493 495.062 414.15 495.543C410.553 500.702 388.984 528.214 386.328 533.871C383.45 540.096 388.042 526.529 388.042 526.529L413.448 496.162Z" fill="#37B37F"/>
<path d="M495.029 453.537C495.029 453.537 428.695 520.495 409.987 533.804C386.157 550.741 415.915 506.429 426.81 495.166C437.963 483.628 468.372 460.707 495.029 453.537Z" fill="#37B37F"/>
<path d="M401.147 536.64C401.147 536.64 402.227 535.454 401.884 535.97C398.064 541.489 375.296 570.824 372.435 576.86C369.3 583.462 374.473 569.087 374.473 569.087L401.147 536.64Z" fill="#37B37F"/>
<path d="M482.694 493.102C482.694 493.102 416.309 560.059 397.635 573.368C373.805 590.305 403.563 545.994 414.458 534.731C425.628 523.193 456.037 500.272 482.694 493.102Z" fill="#37B37F"/>
<path d="M388.812 576.188C388.812 576.188 389.892 575.002 389.549 575.518C385.729 581.037 362.327 611.369 359.449 617.422C356.314 624.025 361.83 608.257 361.83 608.257L388.812 576.188Z" fill="#37B37F"/>
<path d="M481.118 530.776C481.118 530.776 407.126 598.335 388.401 611.593C364.571 628.53 399.965 578.836 410.861 567.573C422.014 556.087 454.444 537.929 481.118 530.776Z" fill="#37B37F"/>
<path d="M380.966 614.533C380.966 614.533 381.6 613.914 381.189 614.533C376.649 621.205 348.262 657.126 344.647 664.399C340.69 672.292 347.32 653.549 347.32 653.549L380.966 614.533Z" fill="#37B37F"/>
<path d="M479.833 578.184C462.065 593.347 443.539 607.592 424.326 620.862C405.721 633.414 386.397 641.616 378.396 645.846C353.093 659.207 395.528 615.961 407.76 606.16C420.318 596.135 453.81 580.832 479.833 578.184Z" fill="#37B37F"/>
<path d="M371.03 647.135C371.03 647.135 371.664 646.516 371.253 647.135C366.713 653.807 336.116 692.651 332.792 699.924C332.004 701.644 336.921 686.323 336.921 686.323L371.03 647.135Z" fill="#37B37F"/>
<path d="M466.402 619.967C466.402 619.967 435.153 647.049 404.077 668.113C383.21 682.316 361.625 691.722 352.682 696.519C324.363 711.737 372.178 663.161 385.952 652.122C400.068 640.893 437.483 623.406 466.402 619.967Z" fill="#37B37F"/>
<path d="M449.544 690.983C449.544 690.983 411.752 701.128 382.045 712.821C347.268 726.577 341.992 727.591 334.077 727.987C308.928 729.242 372.092 688.524 385.934 684.225C400.119 679.789 429.192 679.909 449.544 690.983Z" fill="#37B37F"/>
<path d="M343.311 699.34C343.717 698.888 344.146 698.458 344.596 698.05C342.112 701.489 327.55 716.019 326.333 719.991C326.042 720.937 328.304 713.113 328.304 713.113L343.311 699.34Z" fill="#37B37F"/>
<path d="M331.199 724.858C331.199 724.858 332.158 724.136 332.021 724.29C330.668 726.01 321.297 732.355 321.228 734.504C321.228 735.02 321.228 730.721 321.228 730.721L331.199 724.858Z" fill="#37B37F"/>
<path d="M794.421 358.912L874.306 748.071L863.993 746.764L794.421 358.912Z" fill="#37B37F"/>
<path d="M807.27 296.185C807.27 296.185 805.111 346.463 794.421 358.912C794.421 358.912 781.487 328.408 807.27 296.185Z" fill="#37B37F"/>
<path d="M845.559 314.824C845.559 314.824 820.324 354.287 804.974 360.597C804.991 360.597 807.527 331.813 845.559 314.824Z" fill="#37B37F"/>
<path d="M766.137 278.767C766.137 278.767 800.52 337.23 792.383 356.505C792.383 356.505 748.183 327.876 766.137 278.767Z" fill="#37B37F"/>
<path d="M862.382 335.287C862.382 335.287 834.972 386.408 826.2 400.628C824.144 403.981 822.483 405.425 821.061 405.546C817.052 405.907 816.075 394.317 817.035 386.511C818.354 376.108 831.562 344.967 862.382 335.287Z" fill="#37B37F"/>
<path d="M820.495 404.618C820.495 404.618 820.701 404.36 820.581 404.79C819.245 409.484 811.107 437.925 811.279 442.946C811.484 448.431 809.171 435.689 809.171 435.689L820.495 404.618Z" fill="#37B37F"/>
<path d="M805.077 360.099C805.077 360.099 805.694 359.91 805.608 360.099C803.158 364.518 800.743 383.622 800.931 388.643C801.137 394.128 799.355 384.138 799.355 384.138L805.077 360.099Z" fill="#37B37F"/>
<path d="M871.599 357.794C871.599 357.794 852.446 426.575 839.649 441.242C823.356 459.985 825.138 422.465 827.896 415.759C830.655 409.053 842.407 369.969 871.599 357.794Z" fill="#37B37F"/>
<path d="M805.077 360.099C805.077 360.099 805.694 359.91 805.608 360.099C803.158 364.518 800.743 383.622 800.931 388.643C801.137 394.128 799.355 384.138 799.355 384.138L805.077 360.099Z" fill="#37B37F"/>
<path d="M831.117 443.856C831.117 443.856 831.34 443.564 831.117 444.046C829.678 449.204 820.838 481.015 820.838 486.586C820.838 492.69 818.885 478.556 818.885 478.556L831.117 443.856Z" fill="#37B37F"/>
<path d="M911.927 390.19C911.927 390.19 871.068 466.519 853.68 481.822C831.528 501.304 840.214 456.546 845.114 449.152C850.013 441.758 879.051 400.559 911.927 390.19Z" fill="#37B37F"/>
<path d="M843.092 485.692C843.092 485.692 843.829 484.403 843.674 484.953C842.064 490.799 829.969 522.146 829.969 528.371C830.072 535.249 827.537 520.581 827.537 520.581L843.092 485.692Z" fill="#37B37F"/>
<path d="M930.258 429.928C930.258 429.928 881.159 508.389 863.444 524.811C841.002 545.703 853.405 495.871 861.303 482.7C869.509 469.236 897.245 441.225 930.258 429.928Z" fill="#37B37F"/>
<path d="M852.926 529.023C852.926 529.023 853.679 527.647 853.525 528.232C851.812 534.456 839.255 567.901 839.255 574.521C839.255 581.76 836.925 566.25 836.925 566.25L852.926 529.023Z" fill="#37B37F"/>
<path d="M939.458 472.314C939.458 472.314 890.358 550.775 872.644 567.196C850.202 588.088 862.605 538.257 870.503 525.086C878.657 511.639 906.393 483.611 939.458 472.314Z" fill="#37B37F"/>
<path d="M862.091 571.41C862.091 571.41 862.845 570.034 862.691 570.619C860.978 576.843 848.18 611.406 848.18 618.026C848.18 625.265 845.388 608.293 845.388 608.293L862.091 571.41Z" fill="#37B37F"/>
<path d="M962.637 511.158C962.637 511.158 903.053 591.39 885.407 607.811C862.965 628.703 879.737 572.527 887.634 559.356C895.703 545.875 929.573 522.455 962.637 511.158Z" fill="#37B37F"/>
<path d="M876.79 611.869C876.79 611.869 877.27 611.129 877.098 611.869C875.145 619.383 859.042 660.41 858.768 668.354C858.476 676.952 855.238 656.834 855.238 656.834L876.79 611.869Z" fill="#37B37F"/>
<path d="M992.788 559.939C977.409 578.505 960.659 595.881 942.678 611.92C924.69 627.533 902.761 638.813 894.247 644.333C867.282 661.786 898.393 611.163 909.22 599.299C920.321 587.176 957.668 566.525 992.788 559.939Z" fill="#37B37F"/>
<path d="M884.671 646.758C884.671 646.758 885.15 646.019 884.979 646.758C883.026 654.273 865.74 698.619 865.911 706.563C865.911 708.437 862.605 692.016 862.605 692.016L884.671 646.758Z" fill="#37B37F"/>
<path d="M1001.94 604.819C1001.94 604.819 975.742 637.146 945.848 663.42C925.769 681.062 901.443 693.906 891.986 700.165C862.006 719.957 897.125 663.076 909.323 649.732C921.692 636.062 963.116 612.574 1001.94 604.819Z" fill="#37B37F"/>
<path d="M1025.85 680.048C1025.85 680.048 978.98 696.056 944.717 712.409C904.56 731.581 897.708 733.455 886.709 735.072C851.812 740.093 914.12 688.989 930.892 682.524C948.041 675.921 989.448 671.725 1025.85 680.048Z" fill="#37B37F"/>
<path d="M880.473 704.396C880.473 704.396 881.535 702.522 881.433 702.883C880.216 706.769 869.338 723.827 870.28 728.074C870.503 729.071 868.396 720.663 868.396 720.663L880.473 704.396Z" fill="#37B37F"/>
<path d="M880.576 732.372C880.576 732.372 881.433 731.478 881.364 731.667C880.559 733.558 871.548 741.537 872.918 743.703C873.244 744.219 870.297 739.835 870.297 739.835L880.576 732.372Z" fill="#37B37F"/>
<path d="M768.329 311.438C768.329 311.438 785.307 359.498 796.083 370.881C796.066 370.881 794.918 341.013 768.329 311.438Z" fill="#37B37F"/>
<path d="M749.365 331.195C749.365 331.195 777.906 367.735 789.778 373.031C781.6 354.768 767.299 339.964 749.365 331.195V331.195Z" fill="#37B37F"/>
<path d="M789.504 292.695C789.504 292.695 785.41 350.35 796.648 368.457C796.631 368.457 816.332 338.864 789.504 292.695Z" fill="#37B37F"/>
<path d="M744.842 351.624C744.842 351.624 778.437 399.219 788.494 412.442C790.858 415.555 792.382 416.844 793.29 416.896C795.997 417.033 793.033 405.891 790.001 398.463C785.941 388.541 767.747 359.361 744.842 351.624Z" fill="#37B37F"/>
<path d="M793.393 415.95C793.393 415.95 793.171 415.709 793.393 416.122C795.706 420.558 809.788 447.399 811.227 452.231C812.804 457.493 810.337 445.181 810.337 445.181L793.393 415.95Z" fill="#37B37F"/>
<path d="M789.556 372.531C789.556 372.531 789.093 372.376 789.196 372.531C792.143 376.641 799.629 394.885 801.068 399.648C802.644 404.909 800.691 395.263 800.691 395.263L789.556 372.531Z" fill="#37B37F"/>
<path d="M745.87 373.649C745.87 373.649 779.551 438.509 792.382 451.99C808.726 469.185 795.946 433.282 792.074 426.988C788.202 420.695 768.501 383.846 745.87 373.649Z" fill="#37B37F"/>
<path d="M789.556 372.531C789.556 372.531 789.093 372.376 789.196 372.531C792.143 376.641 799.629 394.885 801.068 399.648C802.644 404.909 800.691 395.263 800.691 395.263L789.556 372.531Z" fill="#37B37F"/>
<path d="M798.704 454.07C798.704 454.07 798.464 453.795 798.704 454.259C801.256 459.212 816.812 489.165 818.491 494.513C820.324 500.359 817.258 486.724 817.258 486.724L798.704 454.07Z" fill="#37B37F"/>
<path d="M729.818 406.75C729.818 406.75 779.876 477.835 795.877 491.625C816.23 509.181 796.734 466.744 791.303 459.952C785.872 453.16 754.299 414.97 729.818 406.75Z" fill="#37B37F"/>
<path d="M803.929 494.737C803.929 494.737 803.055 493.55 803.329 494.049C806.19 499.569 823.75 528.989 825.601 534.956C827.639 541.473 824.761 527.373 824.761 527.373L803.929 494.737Z" fill="#37B37F"/>
<path d="M730.298 445.663C730.298 445.663 786.353 518.381 802.834 533.238C823.803 552.152 800.35 505.02 791.167 492.795C781.762 480.277 755.156 454.897 730.298 445.663Z" fill="#37B37F"/>
<path d="M811.022 536.744C811.022 536.744 810.114 535.472 810.388 536.005C813.42 541.886 831.905 573.284 833.961 579.629C836.205 586.507 832.899 571.599 832.899 571.599L811.022 536.744Z" fill="#37B37F"/>
<path d="M737.51 486.707C737.51 486.707 793.564 559.425 810.045 574.281C831.014 593.196 807.561 546.064 798.379 533.839C788.99 521.338 762.368 495.889 737.51 486.707Z" fill="#37B37F"/>
<path d="M818.234 577.79C818.234 577.79 817.326 576.517 817.6 577.05C820.632 582.931 839.631 615.413 841.67 621.758C843.914 628.636 840.454 612.283 840.454 612.283L818.234 577.79Z" fill="#37B37F"/>
<path d="M734.597 525.069C734.597 525.069 797.985 599.008 814.465 613.813C835.434 632.728 807.184 579.732 798.002 567.507C788.596 555.006 759.455 534.252 734.597 525.069Z" fill="#37B37F"/>
<path d="M821.283 617.269C821.283 617.269 820.735 616.599 821.078 617.269C824.676 624.371 847.803 662.87 850.441 670.453C853.32 678.742 849.157 659.242 849.157 659.242L821.283 617.269Z" fill="#37B37F"/>
<path d="M730.23 573.301C745.539 589.93 761.729 605.721 778.729 620.604C795.193 634.67 812.856 644.385 820.068 649.251C842.905 664.641 807.099 617.681 796.426 606.866C785.496 595.792 755.019 577.84 730.23 573.301Z" fill="#37B37F"/>
<path d="M827.005 651.092C827.005 651.092 826.457 650.422 826.8 651.092C830.397 658.194 855.307 699.823 857.637 707.441C858.185 709.16 855.255 693.341 855.255 693.341L827.005 651.092Z" fill="#37B37F"/>
<path d="M738.229 616.735C755.431 635.44 773.592 653.233 792.639 670.04C811.073 685.946 830.792 697.036 838.895 702.556C864.404 720.026 824.042 667.289 812.05 655.098C799.732 642.683 765.794 622.238 738.229 616.735Z" fill="#37B37F"/>
<path d="M746.11 689.987C746.11 689.987 781.367 703.004 808.572 716.949C840.488 733.319 845.456 734.798 853.114 735.778C877.218 738.856 821.112 692.996 808.281 687.632C795.106 682.164 767.045 680.152 746.11 689.987Z" fill="#37B37F"/>
<path d="M847.581 706.081C847.24 705.592 846.874 705.121 846.484 704.671C848.471 708.333 860.789 724.136 861.509 728.245C861.68 729.225 860.429 721.058 860.429 721.058L847.581 706.081Z" fill="#37B37F"/>
<path d="M856.232 732.905C856.232 732.905 855.392 732.097 855.495 732.269C856.592 733.989 864.883 741.228 864.695 743.411C864.695 743.927 865.192 739.577 865.192 739.577L856.232 732.905Z" fill="#37B37F"/>
</svg>
